<?xml version="1.0" encoding="UTF-8" standalone="no"?><svg xmlns="http://www.w3.org/2000/svg" xmlns:xlink="http://www.w3.org/1999/xlink" contentScriptType="application/ecmascript" contentStyleType="text/css" height="221px" preserveAspectRatio="none" style="width:927px;height:221px;" version="1.1" viewBox="0 0 927 221" width="927px" zoomAndPan="magnify"><defs><filter height="300%" id="f103azrawaidou" width="300%" x="-1" y="-1"><feGaussianBlur result="blurOut" stdDeviation="2.0"/><feColorMatrix in="blurOut" result="blurOut2" type="matrix" values="0 0 0 0 0 0 0 0 0 0 0 0 0 0 0 0 0 0 .4 0"/><feOffset dx="4.0" dy="4.0" in="blurOut2" result="blurOut3"/><feBlend in="SourceGraphic" in2="blurOut3" mode="normal"/></filter></defs><g><!--MD5=[ee0fec323975fbe97ba28321ad4c4bf3]
entity U--><rect fill="#FEFECE" filter="url(#f103azrawaidou)" height="37.6094" style="stroke:#000000;stroke-width:1.5;" width="49" x="530.58" y="172"/><text fill="#000000" font-family="sans-serif" font-size="14" lengthAdjust="spacing" textLength="29" x="540.58" y="196.5332">User</text><!--MD5=[1f67e8801336723dc06e2b95a190f0a5]
entity G--><rect fill="#FEFECE" filter="url(#f103azrawaidou)" height="37.6094" style="stroke:#000000;stroke-width:1.5;" width="50" x="530.08" y="7"/><text fill="#000000" font-family="sans-serif" font-size="14" lengthAdjust="spacing" textLength="30" x="540.08" y="31.5332">Goal</text><!--MD5=[de8696ae7795373927742186bd17727d]
link U to G--><path d="M579.71,188.9 C610.28,186.06 661.29,176.15 685.08,142 C702.1,117.57 702.1,99.43 685.08,75 C663.46,43.97 619.36,32.95 588.55,29.06 " fill="none" id="U-to-G" style="stroke:#A80036;stroke-width:1.0;"/><polygon fill="#A80036" points="580.25,28.15,587.8759,32.0031,588.529,26.0387,580.25,28.15" style="stroke:#A80036;stroke-width:1.0;"/><text fill="#000000" font-family="sans-serif" font-size="13" lengthAdjust="spacing" textLength="77" x="698.08" y="113.9951">1. Add new...</text><!--MD5=[e38b049764e69441a4deeb90d4e51a77]
link G to U--><path d="M530.05,27.34 C429.72,28.94 60.44,37.38 26.08,75 C6,96.99 6,120.01 26.08,142 C59.61,178.71 411.98,187.63 522.27,189.53 " fill="none" id="G-to-U" style="stroke:#A80036;stroke-width:1.0;"/><polygon fill="#A80036" points="530.39,189.67,522.4448,186.5276,522.3377,192.5267,530.39,189.67" style="stroke:#A80036;stroke-width:1.0;"/><text fill="#000000" font-family="sans-serif" font-size="13" lengthAdjust="spacing" textLength="93" x="30.58" y="89.4951">1.1. Enter name</text><text fill="#000000" font-family="sans-serif" font-size="13" lengthAdjust="spacing" textLength="90" x="32.08" y="105.8467">1.2. Finish date</text><text fill="#000000" font-family="sans-serif" font-size="13" lengthAdjust="spacing" textLength="100" x="27.08" y="122.1982">1.3. Goal amount</text><text fill="#000000" font-family="sans-serif" font-size="13" lengthAdjust="spacing" textLength="91" x="31.58" y="138.5498">1.4. Description</text><!--MD5=[de8696ae7795373927742186bd17727d]
link U to G--><path d="M562.26,171.62 C565.33,162.81 568.55,152.01 570.08,142 C574.57,112.56 574.57,104.44 570.08,75 C568.98,67.8 567.01,60.2 564.85,53.23 " fill="none" id="U-to-G-1" style="stroke:#A80036;stroke-width:1.0;"/><polygon fill="#A80036" points="562.26,45.38,561.9245,53.9174,567.6209,52.0329,562.26,45.38" style="stroke:#A80036;stroke-width:1.0;"/><text fill="#000000" font-family="sans-serif" font-size="13" lengthAdjust="spacing" textLength="38" x="574.08" y="113.9951">Create</text><!--MD5=[de8696ae7795373927742186bd17727d]
link U to G--><path d="M579.89,188.61 C633.73,185.03 758.54,173.45 784.08,142 C802.85,118.88 802.85,98.12 784.08,75 C759.8,45.1 645.79,33.15 588.34,28.97 " fill="none" id="U-to-G-2" style="stroke:#A80036;stroke-width:1.0;"/><polygon fill="#A80036" points="580.3,28.41,588.0714,31.9605,588.4897,25.9751,580.3,28.41" style="stroke:#A80036;stroke-width:1.0;"/><text fill="#000000" font-family="sans-serif" font-size="13" lengthAdjust="spacing" textLength="50" x="799.08" y="113.9951">Modify...</text><!--MD5=[e38b049764e69441a4deeb90d4e51a77]
link G to U--><path d="M530.05,28.22 C448.17,32.44 192.15,47.76 168.08,75 C67.89,188.39 411.87,192.32 522.16,190.77 " fill="none" id="G-to-U-1" style="stroke:#A80036;stroke-width:1.0;"/><polygon fill="#A80036" points="530.29,190.64,522.2428,187.7689,522.3392,193.7682,530.29,190.64" style="stroke:#A80036;stroke-width:1.0;"/><text fill="#000000" font-family="sans-serif" font-size="13" lengthAdjust="spacing" textLength="67" x="169.08" y="113.9951">Enter name</text><!--MD5=[e38b049764e69441a4deeb90d4e51a77]
link G to U--><path d="M529.77,27.4 C467.46,28.96 309.34,36.69 277.08,75 C257.9,97.78 257.9,119.22 277.08,142 C308.09,178.82 455.42,187.4 522.13,189.39 " fill="none" id="G-to-U-2" style="stroke:#A80036;stroke-width:1.0;"/><polygon fill="#A80036" points="530.23,189.62,522.3189,186.3927,522.1476,192.3903,530.23,189.62" style="stroke:#A80036;stroke-width:1.0;"/><text fill="#000000" font-family="sans-serif" font-size="13" lengthAdjust="spacing" textLength="64" x="278.08" y="113.9951">Finish date</text><!--MD5=[e38b049764e69441a4deeb90d4e51a77]
link G to U--><path d="M529.89,30.3 C486.56,36.54 400.84,51.6 383.08,75 C365.08,98.72 365.08,118.28 383.08,142 C399.89,164.14 477.56,178.82 522.57,185.62 " fill="none" id="G-to-U-3" style="stroke:#A80036;stroke-width:1.0;"/><polygon fill="#A80036" points="530.57,186.8,523.0882,182.6742,522.2201,188.6111,530.57,186.8" style="stroke:#A80036;stroke-width:1.0;"/><text fill="#000000" font-family="sans-serif" font-size="13" lengthAdjust="spacing" textLength="74" x="384.08" y="113.9951">Goal amount</text><!--MD5=[e38b049764e69441a4deeb90d4e51a77]
link G to U--><path d="M530.01,39.84 C517.01,47.99 502.36,59.85 495.08,75 C482.18,101.84 482.18,115.16 495.08,142 C501.16,154.65 512.37,165 523.47,172.82 " fill="none" id="G-to-U-4" style="stroke:#A80036;stroke-width:1.0;"/><polygon fill="#A80036" points="530.32,177.35,525.314,170.4261,521.9957,175.425,530.32,177.35" style="stroke:#A80036;stroke-width:1.0;"/><text fill="#000000" font-family="sans-serif" font-size="13" lengthAdjust="spacing" textLength="65" x="496.08" y="113.9951">Description</text><!--MD5=[de8696ae7795373927742186bd17727d]
link U to G--><path d="M579.89,179.21 C594.79,171.28 612.47,158.92 621.08,142 C634.59,115.46 634.59,101.54 621.08,75 C613.87,60.83 600.3,49.86 587.33,42.01 " fill="none" id="U-to-G-3" style="stroke:#A80036;stroke-width:1.0;"/><polygon fill="#A80036" points="580.23,37.97,585.7006,44.533,588.6671,39.3176,580.23,37.97" style="stroke:#A80036;stroke-width:1.0;"/><text fill="#000000" font-family="sans-serif" font-size="13" lengthAdjust="spacing" textLength="44" x="632.08" y="113.9951">Change</text><!--MD5=[de8696ae7795373927742186bd17727d]
link U to G--><path d="M579.72,190.01 C645.42,189.46 822.2,184.02 858.08,142 C877.42,119.36 877.42,97.64 858.08,75 C823.68,34.72 659.81,28.06 588.43,27.09 " fill="none" id="U-to-G-4" style="stroke:#A80036;stroke-width:1.0;"/><polygon fill="#A80036" points="580.2,27,588.1674,30.0855,588.2317,24.0859,580.2,27" style="stroke:#A80036;stroke-width:1.0;"/><text fill="#000000" font-family="sans-serif" font-size="13" lengthAdjust="spacing" textLength="46" x="873.08" y="113.9951">Remove</text><!--MD5=[0f860c910ef68d499b0a4722a158ab13]
@startuml
skinparam linestyle ortho
rectangle User as U
rectangle Goal as G
U -down->> G: 1. Add new...
G -right->> U: 1.1. Enter name\n1.2. Finish date\n1.3. Goal amount\n1.4. Description
U -right->> G: Create
U -down->> G: Modify...
G -right->> U: Enter name
G -right->> U: Finish date
G -right->> U: Goal amount
G -right->> U: Description
U -right->> G: Change
U -down->> G: Remove
@enduml

PlantUML version 1.2021.2(Sun Mar 07 13:10:27 EET 2021)
(GPL source distribution)
Java Runtime: Java(TM) SE Runtime Environment
JVM: Java HotSpot(TM) 64-Bit Server VM
Default Encoding: Cp1252
Language: en
Country: US
--></g></svg>