<svg xmlns="http://www.w3.org/2000/svg" xmlns:xlink="http://www.w3.org/1999/xlink" xmlns:lucid="lucid" width="2360" height="2876.88"><g transform="translate(-40 -199.3687601833409)" lucid:page-tab-id="0_0"><path d="M698.7 342.5v9.95m0 9.94v19.9m0 9.94v19.9m0 9.94v19.9m0 9.94v19.9m0 9.94v19.9m0 9.94v19.9m0 9.95v19.9m0 9.94v19.88m0 9.95v19.9m0 9.94v19.9m0 9.94v19.9m0 9.95v19.9m0 9.95v19.9m0 9.94v19.9m0 9.94v19.9m0 9.94v19.9m0 9.94v19.9m0 9.95v19.9m0 9.95v19.9m0 9.94v19.88m0 9.95v19.9m0 9.94v19.9m0 9.94v19.9m0 9.96v19.9m0 9.94v19.9m0 9.94v19.9m0 9.94v19.9m0 9.94v19.9m0 9.94v19.9m0 9.95v19.9m0 9.95v19.9m0 9.94v19.88m0 9.95v19.9m0 9.94v19.9m0 9.95v19.9m0 9.94v19.9m0 9.94v19.9m0 9.94v19.9m0 9.94v19.9m0 9.94v19.9m0 9.95v19.9m0 9.94v19.9m0 9.95v19.9m0 9.94v19.9m0 9.93v19.9m0 9.95v19.9m0 9.94v19.9m0 9.94v19.9m0 9.94v19.9m0 9.94v19.9m0 9.94v19.9m0 9.95v19.9m0 9.94v19.9m0 9.94v19.9m0 9.95v19.9m0 9.94v19.9m0 9.94v19.9m0 9.94v19.9m0 9.94v19.9m0 9.94v19.9m0 9.94v19.9m0 9.94v19.9m0 9.95v19.88m0 9.95v19.9m0 9.94v19.9m0 9.94v19.9m0 9.95v19.9m0 9.95v19.9m0 9.94v19.9m0 9.94v19.9m0 9.94v19.9m0 9.94v19.9m0 9.94v19.9m0 9.95v19.9m0 9.94v19.88m0 9.95v19.9m0 9.94v19.9m0 9.94v19.9m0 9.96v19.9m0 9.94v19.9m0 9.94v19.9m0 9.94v19.9m0 9.94v19.9m0 9.94v19.9m0 9.95v19.9m0 9.95v19.9m0 9.94v19.88m0 9.95v19.9m0 9.94v19.9m0 9.94v19.9m0 9.96v9.94" stroke="#333" fill="none"/><path d="M699.2 342.5h-1v-.5h1z" fill="#333"/><path d="M698.7 3058.1v.5M1475.04 343.58v9.95m0 9.94v19.9m0 9.94v19.9m0 9.95v19.9m0 9.94v19.88m0 9.95v19.9m0 9.94v19.9m0 9.94v19.9m0 9.94v19.9m0 9.94v19.9m0 9.94v19.9m0 9.94v19.9m0 9.94v19.9m0 9.94v19.9m0 9.94v19.9m0 9.93v19.9m0 9.95v19.9m0 9.94v19.88m0 9.95v19.9m0 9.94v19.9m0 9.94v19.9m0 9.94v19.9m0 9.94v19.9m0 9.94v19.9m0 9.94v19.9m0 9.94v19.9m0 9.94v19.9m0 9.94v19.9m0 9.93v19.9m0 9.95v19.9m0 9.94v19.88m0 9.95v19.9m0 9.94v19.9m0 9.94v19.9m0 9.94v19.9m0 9.94v19.9m0 9.94v19.9m0 9.94v19.9m0 9.94v19.9m0 9.94v19.9m0 9.94v19.9m0 9.93v19.9m0 9.95v19.9m0 9.94v19.88m0 9.95v19.9m0 9.94v19.9m0 9.94v19.9m0 9.95v19.9m0 9.93v19.9m0 9.94v19.9m0 9.94v19.9m0 9.94v19.9m0 9.94v19.9m0 9.94v19.9m0 9.93v19.9m0 9.95v19.9m0 9.94v19.88m0 9.95v19.9m0 9.94v19.9m0 9.94v19.9m0 9.95v19.9m0 9.93v19.9m0 9.94v19.9m0 9.94v19.9m0 9.94v19.9m0 9.94v19.9m0 9.94v19.9m0 9.93v19.9m0 9.95v19.9m0 9.94v19.88m0 9.95v19.9m0 9.94v19.9m0 9.94v19.9m0 9.95v19.9m0 9.93v19.9m0 9.94v19.9m0 9.94v19.9m0 9.94v19.9m0 9.94v19.9m0 9.94v19.9m0 9.94v19.9m0 9.93v19.9m0 9.94v19.88m0 9.95v19.9m0 9.94v19.9m0 9.94v19.9m0 9.95v19.9m0 9.93v19.9m0 9.94v19.9m0 9.94v19.9m0 9.94v19.9m0 9.94v9.94" stroke="#333" fill="none"/><path d="M1475.54 343.6h-1v-.52h1z" fill="#333"/><path d="M1475.04 3058.87v.5M1835.87 341.87v9.96m0 9.96v19.9m0 9.96v19.92m0 9.96v19.92m0 9.96v19.92m0 9.96v19.9m0 9.97v19.92m0 9.95v19.92m0 9.96v19.92m0 9.95v19.92m0 9.96v19.92m0 9.96v19.92m0 9.96v19.9m0 9.97v19.93m0 9.96v19.9m0 9.97V800m0 9.95v19.9m0 9.97v19.92m0 9.96v19.92m0 9.96v19.92m0 9.95v19.92m0 9.96v19.92m0 9.96v19.93m0 9.96v19.9m0 9.96v19.92m0 9.96v19.92m0 9.96v19.92m0 9.95v19.9m0 9.97v19.92m0 9.95v19.92m0 9.96v19.9m0 9.97v19.92m0 9.96v19.92m0 9.96v19.92m0 9.96v19.9m0 9.97v19.93m0 9.96v19.9m0 9.97v19.92m0 9.94v19.92m0 9.96v19.92m0 9.96v19.92m0 9.96v19.9m0 9.97v19.92m0 9.96v19.92m0 9.96v19.93m0 9.95v19.92m0 9.96v19.92m0 9.96v19.92m0 9.96v19.9m0 9.97v19.9m0 9.97v19.92m0 9.95v19.92m0 9.96v19.9m0 9.97v19.92m0 9.96v19.92m0 9.96v19.92m0 9.95v19.92m0 9.96v19.93m0 9.96v19.9m0 9.97v19.9m0 9.97v19.92m0 9.96v19.92m0 9.96v19.92m0 9.95v19.92m0 9.95v19.92m0 9.96v19.92m0 9.96v19.92m0 9.96v19.92m0 9.96v19.92m0 9.96v19.92m0 9.96v19.9m0 9.97v19.9m0 9.97V2503m0 9.95v19.92m0 9.95v19.92m0 9.96v19.92m0 9.96v19.92m0 9.96v19.9m0 9.97v19.92m0 9.96v19.93m0 9.96v19.9m0 9.96v19.92m0 9.96v19.92m0 9.96v19.92m0 9.96v19.9m0 9.97v19.92m0 9.95v19.92m0 9.96v19.92m0 9.96v19.92m0 9.96v19.92m0 9.96v19.92m0 9.96v9.96" stroke="#333" fill="none"/><path d="M1836.37 341.88h-1v-.5h1z" fill="#333"/><path d="M1835.87 3060.68v.52" stroke="#333" fill="none"/><path d="M603.65 228c0-4.42 3.58-8 8-8h174.07c4.42 0 8 3.58 8 8v106c0 4.42-3.58 8-8 8H611.65c-4.42 0-8-3.58-8-8z" stroke="#000" stroke-opacity="0" fill="#e79200"/><use xlink:href="#a" transform="matrix(1,0,0,1,611.6496896262572,228) translate(65.79629629629629 56.55555555555555)"/><path d="M1380 229.08c0-4.42 3.58-8 8-8h174.08c4.4 0 8 3.58 8 8v106c0 4.42-3.6 8-8 8H1388c-4.42 0-8-3.58-8-8z" stroke="#000" stroke-opacity="0" fill="#ffcc78"/><use xlink:href="#b" transform="matrix(1,0,0,1,1388.0000000000002,229.08234652688213) translate(21.351851851851848 56.55555555555555)"/><path d="M1740.83 227.37c0-4.42 3.6-8 8-8h174.08c4.43 0 8 3.58 8 8v106c0 4.42-3.57 8-8 8h-174.07c-4.4 0-8-3.58-8-8z" stroke="#000" stroke-opacity="0" fill="#ffe6be"/><use xlink:href="#c" transform="matrix(1,0,0,1,1748.83399832822,227.3687601833409) translate(55.425925925925924 56.55555555555555)"/><path d="M403.4 277.42c0 10.9-8.84 19.75-19.75 19.75-10.9 0-19.75-8.85-19.75-19.75s8.84-19.75 19.75-19.75c10.9 0 19.75 8.84 19.75 19.75z" stroke="#333" fill="#fff"/><path d="M383.65 297.17v47.3c0 4.4 1.92 11.02 4.28 14.76l35.72 56.44m-40-63.2l-40 63.2m0-98.75h80" stroke="#333" fill="none"/><path d="M343.65 265.67c0-4.42 3.58-8 8-8h64c4.42 0 8 3.58 8 8v164c0 4.4-3.58 8-8 8h-64c-4.42 0-8-3.6-8-8z" fill="none"/><use xlink:href="#d" transform="matrix(1,0,0,1,263.6496896262572,415.6655519423589) translate(99.28395061728395 14.555555555555555)"/><path d="M383.65 353.9v10m0 10v19.98m0 10v19.98m0 10v20m0 9.98v20m0 9.98v20m0 10v19.98m0 10v19.98m0 10v20m0 9.98v20m0 9.98v20m0 10v19.98m0 10v19.98m0 10v19.98m0 10v20m0 9.98v20m0 10v19.98m0 10v19.98m0 10v19.98m0 10v20m0 9.98v20m0 10v19.97m0 10v20m0 9.98v20m0 10v19.98m0 10v20m0 9.98v20m0 10v19.98m0 10v19.98m0 10v19.98m0 10v20m0 9.98v20m0 10v19.98m0 10v19.98m0 10v19.98m0 10v20m0 9.98v20m0 10v19.98m0 10v19.98m0 10v19.98m0 10v20m0 9.98v20m0 9.98v20m0 10v19.98m0 10v19.98m0 10v20m0 9.98v20m0 9.98v20m0 10v19.98m0 10v19.98m0 10v19.98m0 10v20m0 9.98v20m0 10v19.98m0 10V1983m0 10V2013m0 10v20m0 9.98v20m0 10v19.97m0 10v20m0 9.98v20m0 10v19.98m0 10v20m0 9.98v20m0 10v19.98m0 10v19.98m0 10v19.98m0 10v20m0 9.98v20m0 10v19.98m0 10v19.98m0 10v19.98m0 10v20m0 9.98v20m0 10v19.97m0 10v19.98m0 10v19.98m0 10v20m0 9.98v20m0 9.98v20m0 10v19.98m0 10v19.98m0 10v20m0 9.98v20m0 9.98v20m0 10v19.98m0 10v19.98m0 10v19.98m0 10v20m0 9.98v20m0 10v9.98M383.65 353.9v-3.5M383.65 3052.43v.5M387.56 495.67H661.8M387.57 495.67h-.5" stroke="#333" fill="none"/><path d="M676.57 495.67l-14.27 4.63v-9.27z" stroke="#333" fill="#333"/><use xlink:href="#e" transform="matrix(1,0,0,1,444.86925030017994,499.66555194235883) translate(0.0049999999999954525 14.222222222222223)"/><use xlink:href="#f" transform="matrix(1,0,0,1,444.86925030017994,499.66555194235883) translate(47.36302469135803 14.222222222222223)"/><use xlink:href="#g" transform="matrix(1,0,0,1,444.86925030017994,499.66555194235883) translate(89.7333950617284 14.222222222222223)"/><path d="M2101.67 229.08c0-4.42 3.58-8 8-8h174.07c4.42 0 8 3.58 8 8v106c0 4.42-3.58 8-8 8h-174.07c-4.42 0-8-3.58-8-8z" stroke="#000" stroke-opacity="0" fill="#ffefed"/><use xlink:href="#h" transform="matrix(1,0,0,1,2109.6679966564398,229.08234652688213) translate(68.75925925925925 56.55555555555555)"/><path d="M2196.7 343.58v10m0 9.97v19.98m0 9.98v19.98m0 10v19.96m0 10v19.96m0 10v19.96m0 9.98v19.98m0 9.98v19.97m0 10v19.96m0 10v19.96m0 9.98v19.97m0 9.98v19.98m0 10v19.96m0 10V743m0 10v19.96m0 10v19.96m0 9.98v19.97m0 9.98v19.97m0 10v19.96m0 10v19.97m0 9.98v19.98m0 9.98v19.98m0 10v19.96m0 10v19.96m0 10v19.96m0 9.98v19.98m0 9.98v19.97m0 10v19.96m0 10v19.96m0 9.98v19.97m0 9.98v19.98m0 10v19.96m0 10v19.96m0 10v19.96m0 10v19.96m0 9.98v19.98m0 9.98v19.97m0 10V1462m0 10v19.97m0 10v19.96m0 9.98v20m0 9.97v19.97m0 10v19.96m0 10v19.96m0 9.98v19.98m0 9.98v19.97m0 10v19.96m0 10v19.96m0 9.98v19.97m0 9.98v19.98m0 10v19.96m0 10v19.96m0 10v19.96m0 10v19.96m0 9.98v19.98m0 9.98v19.97m0 10v19.96m0 10v19.97m0 10v19.96m0 9.98v20m0 9.97v19.97m0 10V2181m0 10v19.96m0 10v19.96m0 9.98v19.98m0 9.98v19.97m0 10v19.96m0 9.98v19.97m0 9.98v19.98m0 10v19.96m0 10v19.96m0 10v19.96m0 10v19.96m0 9.98v19.98m0 9.98v19.97m0 10v19.96m0 10v19.97m0 10v19.96m0 9.98v20m0 9.97v19.97m0 10v19.96m0 10v19.96m0 10v19.96m0 9.98v19.98m0 9.98v19.97m0 10v19.96m0 9.98v19.97m0 10v19.96m0 10v19.97m0 9.98v19.97m0 10v19.96m0 10v9.97" stroke="#333" fill="none"/><path d="M2197.2 343.6h-1v-.52h1z" fill="#333"/><path d="M2196.7 3069.74v.5M677.7 555.2h-4.88m-4.87 0h-9.75m-4.87 0h-9.74m-4.88 0h-9.74m-4.87 0h-9.74m-4.87 0h-9.75m-4.87 0h-9.74m-4.88 0h-9.74m-4.87 0h-9.74m-4.86 0h-9.74m-4.88 0h-9.74m-4.87 0h-9.73m-4.87 0h-9.74m-4.88 0h-9.74m-4.87 0h-9.74m-4.87 0h-9.74m-4.88 0H439m-4.87 0h-9.74m-4.88 0h-9.74m-4.88 0h-4.87" stroke="#333" fill="none"/><path d="M678.2 555.7h-.53v-1h.52z" fill="#333"/><path d="M385.27 555.2l14.26-4.63v9.28z" stroke="#333" fill="#333"/><use xlink:href="#i" transform="matrix(1,0,0,1,386.56849915871896,559.2102786700943) translate(0.0049999999999954525 14.4)"/><use xlink:href="#j" transform="matrix(1,0,0,1,386.56849915871896,559.2102786700943) translate(48.955 14.4)"/><use xlink:href="#k" transform="matrix(1,0,0,1,386.56849915871896,559.2102786700943) translate(84.955 14.4)"/><use xlink:href="#l" transform="matrix(1,0,0,1,386.56849915871896,559.2102786700943) translate(132.805 14.4)"/><use xlink:href="#m" transform="matrix(1,0,0,1,386.56849915871896,559.2102786700943) translate(172.755 14.4)"/><use xlink:href="#n" transform="matrix(1,0,0,1,386.56849915871896,559.2102786700943) translate(192.755 14.4)"/><use xlink:href="#o" transform="matrix(1,0,0,1,386.56849915871896,559.2102786700943) translate(226.755 14.4)"/><path d="M220 548c0-4.42 3.58-8 8-8h84c4.42 0 8 3.58 8 8v4.93c0 3.9-2.24 9.3-5 12.07-2.76 2.76-8.17 5-12.07 5H228c-4.42 0-8-3.58-8-8z" fill="#fff"/><path d="M320 540v20l-10 10h-90" stroke="#333" fill="none"/><path d="M220 548c0-4.42 3.58-8 8-8h924c4.42 0 8 3.58 8 8v164c0 4.42-3.58 8-8 8H228c-4.42 0-8-3.58-8-8zM220 630h20m15 0h20m15 0h20m15 0h20m15 0h20m15 0h20m15 0h20m15 0h20m15 0h20m15 0h20m15 0h20m15 0h20m15 0h20m15 0h20m15 0h20m15 0h20m15 0h20m15 0h20m15 0h20m15 0h20m15 0h20m15 0h20m15 0h20m15 0h20m15 0h20m15 0h20m15 0h20" stroke="#333" fill="none"/><use xlink:href="#p" transform="matrix(1,0,0,1,228,540) translate(-1.4249999999999972 18.6)"/><use xlink:href="#i" transform="matrix(1,0,0,1,232,578) translate(12.524999999999999 18.6)"/><use xlink:href="#q" transform="matrix(1,0,0,1,232,578) translate(61.475 18.6)"/><use xlink:href="#r" transform="matrix(1,0,0,1,232,638) translate(17.525 18.6)"/><path d="M677.7 655.6h-4.88m-4.87 0h-9.75m-4.87 0h-9.74m-4.88 0h-9.74m-4.87 0h-9.74m-4.87 0h-9.75m-4.87 0h-9.74m-4.88 0h-9.74m-4.87 0h-9.74m-4.86 0h-9.74m-4.88 0h-9.74m-4.87 0h-9.73m-4.87 0h-9.74m-4.88 0h-9.74m-4.87 0h-9.74m-4.87 0h-9.74m-4.88 0H439m-4.87 0h-9.74m-4.88 0h-9.74m-4.88 0h-4.87" stroke="#333" fill="none"/><path d="M678.2 656.1h-.53v-1h.52z" fill="#333"/><path d="M385.27 655.6l14.26-4.63v9.27z" stroke="#333" fill="#333"/><use xlink:href="#i" transform="matrix(1,0,0,1,382.09349915871894,659.6056434896697) translate(0.0049999999999954525 14.4)"/><use xlink:href="#s" transform="matrix(1,0,0,1,382.09349915871894,659.6056434896697) translate(48.955 14.4)"/><use xlink:href="#t" transform="matrix(1,0,0,1,382.09349915871894,659.6056434896697) translate(112.905 14.4)"/><use xlink:href="#u" transform="matrix(1,0,0,1,382.09349915871894,659.6056434896697) translate(155.805 14.4)"/><use xlink:href="#v" transform="matrix(1,0,0,1,382.09349915871894,659.6056434896697) translate(216.805 14.4)"/><path d="M678.7 468c0-4.42 3.57-8 8-8h24c4.4 0 8 3.58 8 8v264c0 4.42-3.6 8-8 8h-24c-4.43 0-8-3.58-8-8z" stroke="#333" fill="#fff"/><path d="M384.15 860h674M384.16 860h-.5" stroke="#333" fill="none"/><path d="M1072.92 860l-14.27 4.64v-9.28z" stroke="#333" fill="#333"/><use xlink:href="#w" transform="matrix(1,0,0,1,739.5215465646826,864) translate(0.0049999999999954525 14.4)"/><use xlink:href="#m" transform="matrix(1,0,0,1,739.5215465646826,864) translate(71.955 14.4)"/><use xlink:href="#x" transform="matrix(1,0,0,1,739.5215465646826,864) translate(91.955 14.4)"/><use xlink:href="#y" transform="matrix(1,0,0,1,739.5215465646826,864) translate(137.905 14.4)"/><path d="M1501 900h298" stroke="#333" fill="none"/><path d="M1501 900.5h-.5v-1h.5z" fill="#333"/><path d="M1813.75 900l-14.26 4.64v-9.28z" stroke="#333" fill="#333"/><use xlink:href="#z" transform="matrix(1,0,0,1,1588.4858086965717,904) translate(0.0049999999999954525 14.4)"/><use xlink:href="#A" transform="matrix(1,0,0,1,1588.4858086965717,904) translate(73.955 14.4)"/><path d="M1095.04 341.87v9.96m0 9.96v19.9m0 9.96v19.92m0 9.96v19.92m0 9.96v19.92m0 9.96v19.9m0 9.97v19.92m0 9.95v19.92m0 9.96v19.92m0 9.95v19.92m0 9.96v19.92m0 9.96v19.92m0 9.96v19.9m0 9.97v19.93m0 9.96v19.9m0 9.97V800m0 9.95v19.9m0 9.97v19.92m0 9.96v19.92m0 9.96v19.92m0 9.95v19.92m0 9.96v19.92m0 9.96v19.93m0 9.96v19.9m0 9.96v19.92m0 9.96v19.92m0 9.96v19.92m0 9.95v19.9m0 9.97v19.92m0 9.95v19.92m0 9.96v19.9m0 9.97v19.92m0 9.96v19.92m0 9.96v19.92m0 9.96v19.9m0 9.97v19.93m0 9.96v19.9m0 9.97v19.92m0 9.94v19.92m0 9.96v19.92m0 9.96v19.92m0 9.96v19.9m0 9.97v19.92m0 9.96v19.92m0 9.96v19.93m0 9.95v19.92m0 9.96v19.92m0 9.96v19.92m0 9.96v19.9m0 9.97v19.9m0 9.97v19.92m0 9.95v19.92m0 9.96v19.9m0 9.97v19.92m0 9.96v19.92m0 9.96v19.92m0 9.95v19.92m0 9.96v19.93m0 9.96v19.9m0 9.97v19.9m0 9.97v19.92m0 9.96v19.92m0 9.96v19.92m0 9.95v19.92m0 9.95v19.92m0 9.96v19.92m0 9.96v19.92m0 9.96v19.92m0 9.96v19.92m0 9.96v19.92m0 9.96v19.9m0 9.97v19.9m0 9.97V2503m0 9.95v19.92m0 9.95v19.92m0 9.96v19.92m0 9.96v19.92m0 9.96v19.9m0 9.97v19.92m0 9.96v19.93m0 9.96v19.9m0 9.96v19.92m0 9.96v19.92m0 9.96v19.92m0 9.96v19.9m0 9.97v19.92m0 9.95v19.92m0 9.96v19.92m0 9.96v19.92m0 9.96v19.92m0 9.96v19.92m0 9.96v9.96" stroke="#333" fill="none"/><path d="M1095.54 341.88h-1v-.5h1z" fill="#333"/><path d="M1095.04 3060.68v.52" stroke="#333" fill="none"/><path d="M1000 227.37c0-4.42 3.58-8 8-8h174.08c4.4 0 8 3.58 8 8v106c0 4.42-3.6 8-8 8H1008c-4.42 0-8-3.58-8-8z" stroke="#000" stroke-opacity="0" fill="#ffb135"/><use xlink:href="#B" transform="matrix(1,0,0,1,1007.9999999999999,227.3687601833409) translate(33.771604938271594 56.55555555555555)"/><use xlink:href="#C" transform="matrix(1,0,0,1,1007.9999999999999,227.3687601833409) translate(95.84567901234567 56.55555555555555)"/><path d="M719.7 568.4H1058.15" stroke="#333" fill="none"/><path d="M719.7 568.9h-.5v-1h.5z" fill="#333"/><path d="M1072.92 568.4l-14.27 4.64v-9.27z" stroke="#333" fill="#333"/><use xlink:href="#D" transform="matrix(1,0,0,1,827.987463878052,572.4033942028506) translate(0.0049999999999954525 14.4)"/><use xlink:href="#t" transform="matrix(1,0,0,1,827.987463878052,572.4033942028506) translate(47.855 14.4)"/><use xlink:href="#E" transform="matrix(1,0,0,1,827.987463878052,572.4033942028506) translate(90.755 14.4)"/><path d="M1116.04 880h327.08M1116.05 880h-.5" stroke="#333" fill="none"/><path d="M1457.88 880l-14.26 4.64v-9.28z" stroke="#333" fill="#333"/><use xlink:href="#F" transform="matrix(1,0,0,1,1254.145572349196,884.0000000000002) translate(0.005000000000002558 14.4)"/><use xlink:href="#G" transform="matrix(1,0,0,1,1254.145572349196,884.0000000000002) translate(47.955000000000005 14.4)"/><path d="M1814.87 965.65h-4.95m-4.95 0h-9.9m-4.94 0h-9.9m-4.95 0h-9.9m-4.95 0h-9.9m-4.94 0h-9.9m-4.96 0h-9.9m-4.95 0h-9.9m-4.95 0h-9.9m-4.95 0h-9.9m-4.95 0h-9.9m-4.94 0h-9.9m-4.94 0h-9.9m-4.95 0h-9.88m-4.95 0h-9.9m-4.95 0h-9.9m-4.95 0h-9.9m-4.94 0h-9.9m-4.95 0h-9.9m-4.95 0h-9.9m-4.94 0h-9.9m-4.96 0h-9.9m-4.95 0h-9.9m-4.95 0h-9.9m-4.95 0h-9.9m-4.95 0h-9.9m-4.94 0h-9.9m-4.94 0h-9.9m-4.95 0h-9.9m-4.93 0h-9.9m-4.95 0h-9.9m-4.95 0h-9.9m-4.95 0h-9.9m-4.94 0h-9.9m-4.95 0h-9.9m-4.95 0h-9.9m-4.94 0h-9.9m-4.95 0h-9.9m-4.96 0h-9.9m-4.94 0h-9.9m-4.95 0h-9.9m-4.95 0h-9.9m-4.94 0h-9.9m-4.95 0h-9.9m-4.94 0h-9.9m-4.94 0h-9.9m-4.95 0h-4.95" stroke="#333" fill="none"/><path d="M1815.37 966.15h-.5v-1h.5z" fill="#333"/><path d="M1117.16 965.65l14.26-4.63v9.27z" stroke="#333" fill="#333"/><use xlink:href="#H" transform="matrix(1,0,0,1,1393.0796182290333,969.6513276293806) translate(0.0049999999999954525 14.4)"/><use xlink:href="#I" transform="matrix(1,0,0,1,1393.0796182290333,969.6513276293806) translate(63.855000000000004 14.4)"/><use xlink:href="#J" transform="matrix(1,0,0,1,1393.0796182290333,969.6513276293806) translate(101.805 14.4)"/><path d="M391.47 1088.3h666.68M391.48 1088.3h-.5" stroke="#333" fill="none"/><path d="M1072.92 1088.3l-14.27 4.64v-9.27z" stroke="#333" fill="#333"/><use xlink:href="#w" transform="matrix(1,0,0,1,736.983973986778,1092.306239736996) translate(0.0049999999999954525 14.4)"/><use xlink:href="#m" transform="matrix(1,0,0,1,736.983973986778,1092.306239736996) translate(71.955 14.4)"/><use xlink:href="#x" transform="matrix(1,0,0,1,736.983973986778,1092.306239736996) translate(91.955 14.4)"/><use xlink:href="#K" transform="matrix(1,0,0,1,736.983973986778,1092.306239736996) translate(137.905 14.4)"/><path d="M1501 1125.65h298" stroke="#333" fill="none"/><path d="M1501 1126.15h-.5v-1h.5z" fill="#333"/><path d="M1813.75 1125.65l-14.26 4.64V1121z" stroke="#333" fill="#333"/><use xlink:href="#L" transform="matrix(1,0,0,1,1584.5108086965718,1129.6513276293804) translate(0.0049999999999954525 14.4)"/><use xlink:href="#A" transform="matrix(1,0,0,1,1584.5108086965718,1129.6513276293804) translate(81.905 14.4)"/><path d="M1116.04 1108.3h327.08" stroke="#333" fill="none"/><path d="M1116.05 1108.8h-.5v-1h.5z" fill="#333"/><path d="M1457.88 1108.3l-14.26 4.64v-9.27z" stroke="#333" fill="#333"/><use xlink:href="#F" transform="matrix(1,0,0,1,1248.6205723491962,1112.3062397369958) translate(0.005000000000002558 14.4)"/><use xlink:href="#M" transform="matrix(1,0,0,1,1248.6205723491962,1112.3062397369958) translate(47.955000000000005 14.4)"/><path d="M1814.87 1193.96h-5.06m-5.06 0h-10.12m-5.07 0h-10.13m-5.06 0h-10.13m-5.06 0h-10.13m-5.06 0h-10.13m-5.07 0h-10.12m-5.07 0h-10.14m-5.06 0h-10.13m-5.06 0h-10.12m-5.06 0h-10.13m-5.08 0h-10.12m-5.07 0h-10.13m-5.06 0h-10.13m-5.05 0h-10.13m-5.07 0h-10.12m-5.07 0h-10.13m-5.06 0h-10.13m-5.06 0h-10.13m-5.06 0h-10.14m-5.07 0h-10.13m-5.07 0h-10.13m-5.06 0h-10.12m-5.06 0H1460.4m-5.05 0h-10.1m-5.06 0h-10.12m-5.05 0h-10.1m-5.06 0h-10.1m-5.06 0h-10.1m-5.06 0h-10.1m-5.06 0h-10.1m-5.06 0h-10.1m-5.06 0h-10.1m-5.06 0h-10.1m-5.06 0h-10.1m-5.06 0h-10.1m-5.06 0h-10.1m-5.06 0h-10.1m-5.06 0H1233m-5.06 0h-10.1m-5.06 0h-10.1m-5.06 0h-10.1m-5.06 0h-10.1m-5.06 0h-10.1m-5.06 0h-10.1m-5.06 0h-5.06" stroke="#333" fill="none"/><path d="M1815.37 1194.46h-.5v-1h.5z" fill="#333"/><path d="M1117.16 1193.96l14.26-4.64v9.27z" stroke="#333" fill="#333"/><use xlink:href="#H" transform="matrix(1,0,0,1,1393.0796182290333,1197.9575673663765) translate(0.0049999999999954525 14.4)"/><use xlink:href="#I" transform="matrix(1,0,0,1,1393.0796182290333,1197.9575673663765) translate(63.855000000000004 14.4)"/><use xlink:href="#J" transform="matrix(1,0,0,1,1393.0796182290333,1197.9575673663765) translate(101.805 14.4)"/><path d="M1460 828c0-4.42 3.58-8 8-8h24c4.42 0 8 3.58 8 8v104c0 4.42-3.58 8-8 8h-24c-4.42 0-8-3.58-8-8zM1460 1058.22c0-4.42 3.58-8 8-8h24c4.42 0 8 3.58 8 8v104c0 4.4-3.58 8-8 8h-24c-4.42 0-8-3.6-8-8zM1815.87 853.65c0-4.42 3.58-8 8-8h24c4.42 0 8 3.58 8 8V992c0 4.42-3.58 8-8 8h-24c-4.42 0-8-3.58-8-8zM1815.87 1091.65c0-4.42 3.58-8 8-8h24c4.42 0 8 3.58 8 8V1232c0 4.42-3.58 8-8 8h-24c-4.42 0-8-3.58-8-8zM1075.04 550.16c0-4.42 3.58-8 8-8h24c4.42 0 8 3.58 8 8V2692c0 4.42-3.58 8-8 8h-24c-4.42 0-8-3.58-8-8z" stroke="#333" fill="#fff"/><path d="M384.15 1300h674M384.16 1300h-.5" stroke="#333" fill="none"/><path d="M1072.92 1300l-14.27 4.64v-9.28z" stroke="#333" fill="#333"/><use xlink:href="#w" transform="matrix(1,0,0,1,722.3090900967136,1304.0000000000002) translate(0.0049999999999954525 14.4)"/><use xlink:href="#m" transform="matrix(1,0,0,1,722.3090900967136,1304.0000000000002) translate(71.955 14.4)"/><use xlink:href="#N" transform="matrix(1,0,0,1,722.3090900967136,1304.0000000000002) translate(91.955 14.4)"/><use xlink:href="#I" transform="matrix(1,0,0,1,722.3090900967136,1304.0000000000002) translate(120.955 14.4)"/><use xlink:href="#O" transform="matrix(1,0,0,1,722.3090900967136,1304.0000000000002) translate(158.905 14.4)"/><path d="M1116.04 1325.65H2159.82" stroke="#333" fill="none"/><path d="M1116.05 1326.15h-.5v-1h.5z" fill="#333"/><path d="M2174.6 1325.65l-14.28 4.64V1321z" stroke="#333" fill="#333"/><use xlink:href="#P" transform="matrix(1,0,0,1,1556.0747192964232,1329.6513276293808) translate(0.005000000000002558 14.4)"/><use xlink:href="#I" transform="matrix(1,0,0,1,1556.0747192964232,1329.6513276293808) translate(32.005 14.4)"/><use xlink:href="#O" transform="matrix(1,0,0,1,1556.0747192964232,1329.6513276293808) translate(69.95500000000001 14.4)"/><path d="M2176.7 1288c0-4.42 3.6-8 8-8h24c4.42 0 8 3.58 8 8v524c0 4.42-3.58 8-8 8h-24c-4.4 0-8-3.58-8-8z" stroke="#333" fill="#fff"/><path d="M2175.7 1380h-5.04m-5.05 0h-10.08m-5.04 0h-10.1m-5.04 0h-10.1m-5.04 0h-10.1m-5.04 0h-10.1m-5.04 0h-10.1m-5.04 0h-10.1m-5.03 0h-10.1m-5.04 0h-10.08m-5.05 0h-10.1m-5.04 0h-10.1m-5.04 0H1989m-5.04 0h-10.1m-5.04 0h-10.1m-5.04 0h-10.1m-5.04 0h-10.1m-5.04 0h-10.1m-5.03 0h-10.1m-5.04 0h-10.1m-5.04 0h-10.1m-5.05 0h-10.1m-5.04 0h-10.08m-5.04 0h-10.1m-5.04 0h-10.1m-5.04 0h-10.1m-5.04 0h-10.1m-5.04 0h-10.1m-5.04 0h-10.1m-5.03 0h-10.1m-5.04 0h-10.08m-5.05 0h-10.1m-5.04 0h-10.1m-5.04 0h-10.1m-5.04 0h-10.1m-5.04 0h-10.09m-5.04 0h-10.08m-5.04 0h-10.08m-5.04 0h-10.08m-5.03 0h-10.08m-5.04 0h-10.08m-5.04 0h-10.06m-5.04 0h-10.08m-5.04 0h-10.08m-5.04 0h-10.07m-5.05 0h-10.08m-5.04 0h-10.07m-5.04 0h-10.08m-5.04 0h-10.08m-5.04 0h-10.07m-5.03 0h-10.08m-5.05 0h-10.08m-5.03 0h-10.08m-5.04 0h-10.08m-5.04 0h-10.07m-5.04 0h-10.1m-5.03 0h-10.08m-5.04 0h-10.08m-5.04 0h-10.08m-5.04 0h-10.07m-5.04 0h-10.07m-5.04 0h-10.1m-5.03 0h-10.07m-5.04 0h-10.08m-5.04 0h-10.08m-5.03 0h-10.08m-5.04 0h-10.07m-5.04 0h-10.08m-5.04 0H1142m-5.04 0h-5.04" stroke="#333" fill="none"/><path d="M2176.2 1380.5h-.5v-1h.5z" fill="#333"/><path d="M1117.16 1380l14.26-4.64v9.28z" stroke="#333" fill="#333"/><use xlink:href="#H" transform="matrix(1,0,0,1,1555.1023113421584,1383.9999999999998) translate(0.0049999999999954525 14.4)"/><use xlink:href="#I" transform="matrix(1,0,0,1,1555.1023113421584,1383.9999999999998) translate(63.855000000000004 14.4)"/><use xlink:href="#O" transform="matrix(1,0,0,1,1555.1023113421584,1383.9999999999998) translate(101.805 14.4)"/><path d="M1815.87 1453.65c0-4.42 3.58-8 8-8h24c4.42 0 8 3.58 8 8V1812c0 4.42-3.58 8-8 8h-24c-4.42 0-8-3.58-8-8z" stroke="#333" fill="#fff"/><path d="M1856.87 1500h302.95" stroke="#333" fill="none"/><path d="M1856.88 1500.5h-.5v-1h.5z" fill="#333"/><path d="M2174.6 1500l-14.28 4.64v-9.28z" stroke="#333" fill="#333"/><use xlink:href="#w" transform="matrix(1,0,0,1,1881.8886165572533,1504) translate(0.0049999999999954525 14.4)"/><use xlink:href="#Q" transform="matrix(1,0,0,1,1881.8886165572533,1504) translate(71.955 14.4)"/><use xlink:href="#R" transform="matrix(1,0,0,1,1881.8886165572533,1504) translate(85.905 14.4)"/><use xlink:href="#S" transform="matrix(1,0,0,1,1881.8886165572533,1504) translate(124.855 14.4)"/><use xlink:href="#T" transform="matrix(1,0,0,1,1881.8886165572533,1504) translate(158.85500000000002 14.4)"/><use xlink:href="#U" transform="matrix(1,0,0,1,1881.8886165572533,1504) translate(203.85500000000002 14.4)"/><path d="M120 1548c0-4.42 3.58-8 8-8h84c4.42 0 8 3.58 8 8v4.93c0 3.9-2.24 9.3-5 12.07-2.76 2.76-8.17 5-12.07 5H128c-4.42 0-8-3.58-8-8z" fill="#fff"/><path d="M220 1540v20l-10 10h-90" stroke="#333" fill="none"/><path d="M120 1548c0-4.42 3.58-8 8-8h2174.08c4.4 0 8 3.58 8 8v264c0 4.42-3.6 8-8 8H128c-4.42 0-8-3.58-8-8zM120 1697.5h20m15 0h20m15 0h20m15 0h20m15 0h20m15 0h20m15 0h20m15 0h20m15 0h20m15 0h20m15 0h20m15 0h20m15 0h20m15 0h20m15 0h20m15 0h20m15 0h20m15 0h20m15 0h20m15 0h20m15 0h20m15 0h20m15 0h20m15 0h20m15 0h20m15 0h20m15 0h20m15 0h20m15 0h20m15 0h20m15 0h20m15 0h20m15 0h20m15 0h20m15 0h20m15 0h20m15 0h20m15 0h20m15 0h20m15 0h20m15 0h20m15 0h20m15 0h20m15 0h20m15 0h20m15 0h20m15 0h20m15 0h20m15 0h20m15 0h20m15 0h20m15 0h20m15 0h20m15 0h20m15 0h20m15 0h20m15 0h20m15 0h20m15 0h20m15 0h20m15 0h20m15 0h20m15 0h20" stroke="#333" fill="none"/><use xlink:href="#p" transform="matrix(1,0,0,1,128,1540) translate(-1.4249999999999972 18.6)"/><use xlink:href="#V" transform="matrix(1,0,0,1,132,1578) translate(6.549999999999997 18.6)"/><use xlink:href="#S" transform="matrix(1,0,0,1,132,1578) translate(49.5 18.6)"/><use xlink:href="#T" transform="matrix(1,0,0,1,132,1578) translate(83.5 18.6)"/><use xlink:href="#U" transform="matrix(1,0,0,1,132,1578) translate(128.5 18.6)"/><use xlink:href="#r" transform="matrix(1,0,0,1,132,1705.5) translate(17.525 18.6)"/><path d="M2175.7 1580h-5.04m-5.05 0h-10.1m-5.04 0h-10.1m-5.05 0h-10.1m-5.04 0h-10.1m-5.04 0h-10.1m-5.05 0h-10.1m-5.05 0h-10.1m-5.05 0h-10.1m-5.04 0h-10.1m-5.05 0h-10.1m-5.05 0h-10.1m-5.05 0h-10.1m-5.04 0h-10.1m-5.05 0h-10.1m-5.06 0h-10.1m-5.05 0h-10.1m-5.05 0h-10.1m-5.05 0H1898m-5.05 0h-10.1m-5.05 0h-5.04" stroke="#333" fill="none"/><path d="M2176.2 1580.5h-.5v-1h.5z" fill="#333"/><path d="M1858 1580l14.26-4.64v9.28z" stroke="#333" fill="#333"/><use xlink:href="#V" transform="matrix(1,0,0,1,1922.838616557253,1584.0000000000002) translate(0.0049999999999954525 14.4)"/><use xlink:href="#S" transform="matrix(1,0,0,1,1922.838616557253,1584.0000000000002) translate(42.955 14.4)"/><use xlink:href="#T" transform="matrix(1,0,0,1,1922.838616557253,1584.0000000000002) translate(76.955 14.4)"/><use xlink:href="#U" transform="matrix(1,0,0,1,1922.838616557253,1584.0000000000002) translate(121.955 14.4)"/><path d="M1814.87 1600h-5.06m-5.06 0h-10.12m-5.07 0h-10.13m-5.06 0h-10.13m-5.06 0h-10.13m-5.06 0h-10.13m-5.07 0h-10.12m-5.07 0h-10.14m-5.06 0h-10.13m-5.06 0h-10.12m-5.06 0h-10.13m-5.08 0h-10.12m-5.07 0h-10.13m-5.06 0h-10.13m-5.05 0h-10.13m-5.07 0h-10.12m-5.07 0h-10.13m-5.06 0h-10.13m-5.06 0h-10.13m-5.06 0h-10.14m-5.07 0h-10.13m-5.07 0h-10.13m-5.06 0h-10.12m-5.06 0H1460.4m-5.05 0h-10.1m-5.06 0h-10.12m-5.05 0h-10.1m-5.06 0h-10.1m-5.06 0h-10.1m-5.06 0h-10.1m-5.06 0h-10.1m-5.06 0h-10.1m-5.06 0h-10.1m-5.06 0h-10.1m-5.06 0h-10.1m-5.06 0h-10.1m-5.06 0h-10.1m-5.06 0h-10.1m-5.06 0H1233m-5.06 0h-10.1m-5.06 0h-10.1m-5.06 0h-10.1m-5.06 0h-10.1m-5.06 0h-10.1m-5.06 0h-10.1m-5.06 0h-5.06" stroke="#333" fill="none"/><path d="M1815.37 1600.5h-.5v-1h.5z" fill="#333"/><path d="M1117.16 1600l14.26-4.64v9.28z" stroke="#333" fill="#333"/><use xlink:href="#W" transform="matrix(1,0,0,1,1383.7980777448213,1604) translate(0.0049999999999954525 14.4)"/><use xlink:href="#X" transform="matrix(1,0,0,1,1383.7980777448213,1604) translate(50.905 14.4)"/><use xlink:href="#R" transform="matrix(1,0,0,1,1383.7980777448213,1604) translate(100.905 14.4)"/><use xlink:href="#Y" transform="matrix(1,0,0,1,1383.7980777448213,1604) translate(139.85500000000002 14.4)"/><use xlink:href="#U" transform="matrix(1,0,0,1,1383.7980777448213,1604) translate(188.805 14.4)"/><path d="M1074.04 1620h-5m-5 0h-9.97m-5 0h-9.98m-5 0h-10m-4.98 0h-10m-4.98 0h-9.98m-5 0h-9.98m-5 0h-9.98m-5 0h-9.98m-5 0h-9.98m-5 0h-9.97m-5 0h-9.98m-5 0h-10m-4.98 0h-10m-4.98 0h-10m-4.98 0h-9.98m-5 0h-9.98m-5 0h-9.98m-5 0h-9.98m-5 0h-9.97m-5 0h-9.98m-5 0h-10m-4.98 0h-10m-4.98 0h-10m-4.98 0h-9.98m-5 0h-9.98m-5 0h-9.98m-5 0h-9.98m-5 0h-9.98m-5 0h-9.97m-5 0h-10m-4.98 0h-10m-4.98 0h-10m-4.98 0h-9.98m-5 0h-9.98m-5 0h-9.98m-5 0h-9.98m-5 0h-9.98m-5 0h-9.97m-5 0h-10m-4.98 0h-10m-4.98 0h-10m-4.98 0h-10m-4.98 0H425m-5 0h-9.98m-5 0h-5" stroke="#333" fill="none"/><path d="M1074.54 1620.5h-.52v-1h.52z" fill="#333"/><path d="M385.27 1620l14.26-4.64v9.28z" stroke="#333" fill="#333"/><use xlink:href="#V" transform="matrix(1,0,0,1,600.3003462545166,1624.0000000000002) translate(0.0049999999999954525 14.4)"/><use xlink:href="#S" transform="matrix(1,0,0,1,600.3003462545166,1624.0000000000002) translate(42.955 14.4)"/><use xlink:href="#T" transform="matrix(1,0,0,1,600.3003462545166,1624.0000000000002) translate(76.955 14.4)"/><use xlink:href="#U" transform="matrix(1,0,0,1,600.3003462545166,1624.0000000000002) translate(121.955 14.4)"/><path d="M2175.7 1720h-5.04m-5.05 0h-10.1m-5.04 0h-10.1m-5.05 0h-10.1m-5.04 0h-10.1m-5.04 0h-10.1m-5.05 0h-10.1m-5.05 0h-10.1m-5.05 0h-10.1m-5.04 0h-10.1m-5.05 0h-10.1m-5.05 0h-10.1m-5.05 0h-10.1m-5.04 0h-10.1m-5.05 0h-10.1m-5.06 0h-10.1m-5.05 0h-10.1m-5.05 0h-10.1m-5.05 0H1898m-5.05 0h-10.1m-5.05 0h-5.04" stroke="#333" fill="none"/><path d="M2176.2 1720.5h-.5v-1h.5z" fill="#333"/><path d="M1858 1720l14.26-4.64v9.28z" stroke="#333" fill="#333"/><use xlink:href="#V" transform="matrix(1,0,0,1,1907.8386165572533,1724) translate(0.0049999999999954525 14.4)"/><use xlink:href="#S" transform="matrix(1,0,0,1,1907.8386165572533,1724) translate(42.955 14.4)"/><use xlink:href="#Z" transform="matrix(1,0,0,1,1907.8386165572533,1724) translate(76.955 14.4)"/><use xlink:href="#T" transform="matrix(1,0,0,1,1907.8386165572533,1724) translate(106.955 14.4)"/><use xlink:href="#U" transform="matrix(1,0,0,1,1907.8386165572533,1724) translate(151.95499999999998 14.4)"/><path d="M1814.87 1740h-5.06m-5.06 0h-10.12m-5.07 0h-10.13m-5.06 0h-10.13m-5.06 0h-10.13m-5.06 0h-10.13m-5.07 0h-10.12m-5.07 0h-10.14m-5.06 0h-10.13m-5.06 0h-10.12m-5.06 0h-10.13m-5.08 0h-10.12m-5.07 0h-10.13m-5.06 0h-10.13m-5.05 0h-10.13m-5.07 0h-10.12m-5.07 0h-10.13m-5.06 0h-10.13m-5.06 0h-10.13m-5.06 0h-10.14m-5.07 0h-10.13m-5.07 0h-10.13m-5.06 0h-10.12m-5.06 0H1460.4m-5.05 0h-10.1m-5.06 0h-10.12m-5.05 0h-10.1m-5.06 0h-10.1m-5.06 0h-10.1m-5.06 0h-10.1m-5.06 0h-10.1m-5.06 0h-10.1m-5.06 0h-10.1m-5.06 0h-10.1m-5.06 0h-10.1m-5.06 0h-10.1m-5.06 0h-10.1m-5.06 0h-10.1m-5.06 0H1233m-5.06 0h-10.1m-5.06 0h-10.1m-5.06 0h-10.1m-5.06 0h-10.1m-5.06 0h-10.1m-5.06 0h-10.1m-5.06 0h-5.06" stroke="#333" fill="none"/><path d="M1815.37 1740.5h-.5v-1h.5z" fill="#333"/><path d="M1117.16 1740l14.26-4.64v9.28z" stroke="#333" fill="#333"/><g><use xlink:href="#V" transform="matrix(1,0,0,1,1357.0046182290332,1744) translate(0.0049999999999954525 14.4)"/><use xlink:href="#S" transform="matrix(1,0,0,1,1357.0046182290332,1744) translate(42.955 14.4)"/><use xlink:href="#Z" transform="matrix(1,0,0,1,1357.0046182290332,1744) translate(76.955 14.4)"/><use xlink:href="#T" transform="matrix(1,0,0,1,1357.0046182290332,1744) translate(106.955 14.4)"/><use xlink:href="#U" transform="matrix(1,0,0,1,1357.0046182290332,1744) translate(151.95499999999998 14.4)"/></g><path d="M60 1268c0-4.42 3.58-8 8-8h84c4.42 0 8 3.58 8 8v4.93c0 3.9-2.24 9.3-5 12.07-2.76 2.76-8.17 5-12.07 5H68c-4.42 0-8-3.58-8-8z" fill="#fff"/><path d="M160 1260v20l-10 10H60" stroke="#333" fill="none"/><path d="M60 1268c0-4.42 3.58-8 8-8h2304c4.42 0 8 3.58 8 8v644c0 4.42-3.58 8-8 8H68c-4.42 0-8-3.58-8-8z" stroke="#333" fill="none"/><g><use xlink:href="#aa" transform="matrix(1,0,0,1,68,1260) translate(21 18.6)"/></g><g><use xlink:href="#ab" transform="matrix(1,0,0,1,72,1298) translate(7.199999999999989 18.6)"/><use xlink:href="#l" transform="matrix(1,0,0,1,72,1298) translate(48.04999999999999 18.6)"/><use xlink:href="#ac" transform="matrix(1,0,0,1,72,1298) translate(88 18.6)"/><use xlink:href="#ad" transform="matrix(1,0,0,1,72,1298) translate(136 18.6)"/><use xlink:href="#ae" transform="matrix(1,0,0,1,72,1298) translate(204.85 18.6)"/><use xlink:href="#af" transform="matrix(1,0,0,1,72,1298) translate(229.85 18.6)"/></g><path d="M1455.04 1968c0-4.42 3.58-8 8-8h24c4.42 0 8 3.58 8 8v124c0 4.42-3.58 8-8 8h-24c-4.42 0-8-3.58-8-8z" stroke="#333" fill="#fff"/><path d="M1116.04 2020h322.1" stroke="#333" fill="none"/><path d="M1116.05 2020.5h-.5v-1h.5z" fill="#333"/><path d="M1452.92 2020l-14.27 4.64v-9.28z" stroke="#333" fill="#333"/><g><use xlink:href="#F" transform="matrix(1,0,0,1,1214.0736310398688,2024) translate(0.0049999999999954525 14.4)"/><use xlink:href="#ag" transform="matrix(1,0,0,1,1214.0736310398688,2024) translate(47.955 14.4)"/><use xlink:href="#y" transform="matrix(1,0,0,1,1214.0736310398688,2024) translate(136.805 14.4)"/></g><path d="M1815.87 1968c0-4.42 3.58-8 8-8h24c4.42 0 8 3.58 8 8v424c0 4.42-3.58 8-8 8h-24c-4.42 0-8-3.58-8-8z" stroke="#333" fill="#fff"/><path d="M1496.04 2060H1799" stroke="#333" fill="none"/><path d="M1496.05 2060.5h-.5v-1h.5z" fill="#333"/><path d="M1813.75 2060l-14.26 4.64v-9.28z" stroke="#333" fill="#333"/><g><use xlink:href="#z" transform="matrix(1,0,0,1,1587.0046182290334,2064) translate(0.0049999999999954525 14.4)"/><use xlink:href="#ah" transform="matrix(1,0,0,1,1587.0046182290334,2064) translate(73.955 14.4)"/></g><path d="M1814.87 1193.96h-5.06m-5.06 0h-10.12m-5.07 0h-10.13m-5.06 0h-10.13m-5.06 0h-10.13m-5.06 0h-10.13m-5.07 0h-10.12m-5.07 0h-10.14m-5.06 0h-10.13m-5.06 0h-10.12m-5.06 0h-10.13m-5.08 0h-10.12m-5.07 0h-10.13m-5.06 0h-10.13m-5.05 0h-10.13m-5.07 0h-10.12m-5.07 0h-10.13m-5.06 0h-10.13m-5.06 0h-10.13m-5.06 0h-10.14m-5.07 0h-10.13m-5.07 0h-10.13m-5.06 0h-10.12m-5.06 0H1460.4m-5.05 0h-10.1m-5.06 0h-10.12m-5.05 0h-10.1m-5.06 0h-10.1m-5.06 0h-10.1m-5.06 0h-10.1m-5.06 0h-10.1m-5.06 0h-10.1m-5.06 0h-10.1m-5.06 0h-10.1m-5.06 0h-10.1m-5.06 0h-10.1m-5.06 0h-10.1m-5.06 0h-10.1m-5.06 0H1233m-5.06 0h-10.1m-5.06 0h-10.1m-5.06 0h-10.1m-5.06 0h-10.1m-5.06 0h-10.1m-5.06 0h-10.1m-5.06 0h-5.06M1814.86 1193.96h.5" stroke="#333" fill="none"/><path d="M1117.16 1193.96l14.26-4.64v9.27z" stroke="#333" fill="#333"/><g><use xlink:href="#H" transform="matrix(1,0,0,1,1393.0796182290333,1197.9575673663765) translate(0.0049999999999954525 14.4)"/><use xlink:href="#I" transform="matrix(1,0,0,1,1393.0796182290333,1197.9575673663765) translate(63.855000000000004 14.4)"/><use xlink:href="#J" transform="matrix(1,0,0,1,1393.0796182290333,1197.9575673663765) translate(101.805 14.4)"/></g><path d="M1814.87 2120h-4.95m-4.95 0h-9.9m-4.94 0h-9.9m-4.95 0h-9.9m-4.95 0h-9.9m-4.94 0h-9.9m-4.96 0h-9.9m-4.95 0h-9.9m-4.95 0h-9.9m-4.95 0h-9.9m-4.95 0h-9.9m-4.94 0h-9.9m-4.94 0h-9.9m-4.95 0h-9.88m-4.95 0h-9.9m-4.95 0h-9.9m-4.95 0h-9.9m-4.94 0h-9.9m-4.95 0h-9.9m-4.95 0h-9.9m-4.94 0h-9.9m-4.96 0h-9.9m-4.95 0h-9.9m-4.95 0h-9.9m-4.95 0h-9.9m-4.95 0h-9.9m-4.94 0h-9.9m-4.94 0h-9.9m-4.95 0h-9.9m-4.93 0h-9.9m-4.95 0h-9.9m-4.95 0h-9.9m-4.95 0h-9.9m-4.94 0h-9.9m-4.95 0h-9.9m-4.95 0h-9.9m-4.94 0h-9.9m-4.95 0h-9.9m-4.96 0h-9.9m-4.94 0h-9.9m-4.95 0h-9.9m-4.95 0h-9.9m-4.94 0h-9.9m-4.95 0h-9.9m-4.94 0h-9.9m-4.94 0h-9.9m-4.95 0h-4.95" stroke="#333" fill="none"/><path d="M1815.37 2120.5h-.5v-1h.5z" fill="#333"/><path d="M1117.16 2120l14.26-4.64v9.28z" stroke="#333" fill="#333"/><g><use xlink:href="#H" transform="matrix(1,0,0,1,1393.0796182290333,2123.9999999999995) translate(0.0049999999999954525 14.4)"/><use xlink:href="#I" transform="matrix(1,0,0,1,1393.0796182290333,2123.9999999999995) translate(63.855000000000004 14.4)"/><use xlink:href="#J" transform="matrix(1,0,0,1,1393.0796182290333,2123.9999999999995) translate(101.805 14.4)"/></g><path d="M1455.54 2188c0-4.42 3.58-8 8-8h24c4.42 0 8 3.58 8 8v124c0 4.42-3.58 8-8 8h-24c-4.42 0-8-3.58-8-8z" stroke="#333" fill="#fff"/><path d="M1116.54 2240h322.1M1116.55 2240h-.5" stroke="#333" fill="none"/><path d="M1453.42 2240l-14.27 4.64v-9.28z" stroke="#333" fill="#333"/><g><use xlink:href="#F" transform="matrix(1,0,0,1,1209.5236310398686,2244) translate(0.0049999999999954525 14.4)"/><use xlink:href="#ag" transform="matrix(1,0,0,1,1209.5236310398686,2244) translate(47.955 14.4)"/><use xlink:href="#K" transform="matrix(1,0,0,1,1209.5236310398686,2244) translate(136.805 14.4)"/></g><path d="M1496.54 2280h302.95" stroke="#333" fill="none"/><path d="M1496.55 2280.5h-.5v-1h.5z" fill="#333"/><path d="M1814.25 2280l-14.26 4.64v-9.28z" stroke="#333" fill="#333"/><g><use xlink:href="#L" transform="matrix(1,0,0,1,1583.5296182290335,2283.9999999999995) translate(0.0049999999999954525 14.4)"/><use xlink:href="#ah" transform="matrix(1,0,0,1,1583.5296182290335,2283.9999999999995) translate(81.905 14.4)"/></g><path d="M1815.37 2340h-4.95m-4.95 0h-9.9m-4.94 0h-9.9m-4.95 0h-9.9m-4.95 0h-9.9m-4.94 0h-9.9m-4.96 0h-9.9m-4.95 0h-9.9m-4.95 0h-9.9m-4.95 0h-9.9m-4.95 0h-9.9m-4.94 0h-9.9m-4.94 0h-9.9m-4.95 0h-9.88m-4.95 0h-9.9m-4.95 0h-9.9m-4.95 0h-9.9m-4.94 0h-9.9m-4.95 0h-9.9m-4.95 0h-9.9m-4.94 0h-9.9m-4.96 0h-9.9m-4.95 0h-9.9m-4.95 0h-9.9m-4.95 0h-9.9m-4.95 0h-9.9m-4.94 0h-9.9m-4.94 0h-9.9m-4.95 0h-9.9m-4.93 0h-9.9m-4.95 0h-9.9m-4.95 0h-9.9m-4.95 0h-9.9m-4.94 0h-9.9m-4.95 0h-9.9m-4.95 0h-9.9m-4.94 0h-9.9m-4.95 0h-9.9m-4.96 0h-9.9m-4.94 0h-9.9m-4.95 0h-9.9m-4.95 0h-9.9m-4.94 0h-9.9m-4.95 0h-9.9m-4.94 0h-9.9m-4.94 0h-9.9m-4.95 0h-4.95M1815.36 2340h.5" stroke="#333" fill="none"/><path d="M1117.66 2340l14.26-4.64v9.28z" stroke="#333" fill="#333"/><g><use xlink:href="#H" transform="matrix(1,0,0,1,1393.5796182290333,2344) translate(0.0049999999999954525 14.4)"/><use xlink:href="#I" transform="matrix(1,0,0,1,1393.5796182290333,2344) translate(63.855000000000004 14.4)"/><use xlink:href="#J" transform="matrix(1,0,0,1,1393.5796182290333,2344) translate(101.805 14.4)"/></g><path d="M740 1948c0-4.42 3.58-8 8-8h84c4.42 0 8 3.58 8 8v4.93c0 3.9-2.24 9.3-5 12.07-2.76 2.76-8.17 5-12.07 5H748c-4.42 0-8-3.58-8-8z" fill="#fff"/><path d="M840 1940v20l-10 10h-90" stroke="#333" fill="none"/><path d="M740 1948c0-4.42 3.58-8 8-8h1184c4.42 0 8 3.58 8 8v524c0 4.42-3.58 8-8 8H748c-4.42 0-8-3.58-8-8z" stroke="#333" fill="none"/><g><use xlink:href="#ai" transform="matrix(1,0,0,1,748,1940) translate(21 18.6)"/></g><g><use xlink:href="#aj" transform="matrix(1,0,0,1,752,1978) translate(11.150000000000006 18.6)"/><use xlink:href="#ak" transform="matrix(1,0,0,1,752,1978) translate(52.00000000000001 18.6)"/><use xlink:href="#al" transform="matrix(1,0,0,1,752,1978) translate(91.95000000000002 18.6)"/><use xlink:href="#am" transform="matrix(1,0,0,1,752,1978) translate(139.95000000000002 18.6)"/><use xlink:href="#an" transform="matrix(1,0,0,1,752,1978) translate(172.9 18.6)"/></g><path d="M373.04 1920.5" stroke="#333" fill="none"/><path fill="#333"/><path d="M371.42 1920.5l-14.27 4.64v-9.28z" stroke="#333" fill="#333"/><path d="M384.15 2560h674M384.16 2560h-.5" stroke="#333" fill="none"/><path d="M1072.92 2560l-14.27 4.64v-9.28z" stroke="#333" fill="#333"/><g><use xlink:href="#ao" transform="matrix(1,0,0,1,721.1522417351698,2564.0000000000005) translate(0.0049999999999954525 14.4)"/><use xlink:href="#I" transform="matrix(1,0,0,1,721.1522417351698,2564.0000000000005) translate(37.004999999999995 14.4)"/><use xlink:href="#ap" transform="matrix(1,0,0,1,721.1522417351698,2564.0000000000005) translate(74.955 14.4)"/><use xlink:href="#aq" transform="matrix(1,0,0,1,721.1522417351698,2564.0000000000005) translate(147.95499999999998 14.4)"/></g><path d="M1460 2548c0-4.42 3.58-8 8-8h24c4.42 0 8 3.58 8 8v144c0 4.42-3.58 8-8 8h-24c-4.42 0-8-3.58-8-8z" stroke="#333" fill="#fff"/><path d="M1116.04 2580h327.08" stroke="#333" fill="none"/><path d="M1116.05 2580.5h-.5v-1h.5z" fill="#333"/><path d="M1457.88 2580l-14.26 4.64v-9.28z" stroke="#333" fill="#333"/><g><use xlink:href="#ar" transform="matrix(1,0,0,1,1204.6188095324615,2584.000000000001) translate(0.0049999999999954525 14.4)"/><use xlink:href="#I" transform="matrix(1,0,0,1,1204.6188095324615,2584.000000000001) translate(58.905 14.4)"/><use xlink:href="#aq" transform="matrix(1,0,0,1,1204.6188095324615,2584.000000000001) translate(96.855 14.4)"/></g><path d="M1459 2640h-5.2m-5.2 0h-10.4m-5.18 0h-10.4m-5.2 0h-10.38m-5.2 0h-10.4m-5.2 0h-10.38m-5.2 0h-10.4m-5.2 0h-10.38m-5.2 0h-10.4m-5.2 0h-10.38m-5.2 0h-10.4m-5.18 0h-10.4m-5.17 0h-10.38m-5.18 0h-10.4m-5.17 0h-10.38m-5.18 0h-10.38m-5.2 0h-10.37m-5.18 0h-10.38m-5.18 0h-10.4m-5.17 0h-10.37m-5.2 0h-10.36m-5.2 0h-5.18" stroke="#333" fill="none"/><path d="M1459.5 2640.5h-.5v-1h.5z" fill="#333"/><path d="M1117.16 2640l14.26-4.64v9.28z" stroke="#333" fill="#333"/><g><use xlink:href="#H" transform="matrix(1,0,0,1,1202.1438095324615,2644.0000000000005) translate(0.0049999999999954525 14.4)"/><use xlink:href="#I" transform="matrix(1,0,0,1,1202.1438095324615,2644.0000000000005) translate(63.855000000000004 14.4)"/><use xlink:href="#as" transform="matrix(1,0,0,1,1202.1438095324615,2644.0000000000005) translate(101.805 14.4)"/></g><defs><path fill="#333" d="M11 0l48-248h34L50-27h125l-5 27H11" id="at"/><path fill="#333" d="M30-147c31-64 166-65 159 27C183-49 158 1 86 4 9 8 1-88 30-147zM88-20c53 0 68-48 68-100 0-31-11-51-44-50-52 1-68 46-68 97 0 32 13 53 44 53" id="au"/><path fill="#333" d="M103-194c29 0 47 14 56 36 2-11 5-23 8-32h30L160-5C157 61 82 97 21 62 9 55 4 45 1 30l28-7c7 42 83 31 92-3 4-16 9-38 13-55-13 20-29 36-62 36-40 0-60-25-60-64 0-71 23-131 91-131zm4 24c-53 0-58 54-61 104-2 27 10 44 36 44 49 0 65-50 67-102 1-29-15-46-42-46" id="av"/><path fill="#333" d="M50-231l6-30h32l-6 30H50zM6 0l37-190h31L37 0H6" id="aw"/><path fill="#333" d="M67-158c22-48 132-52 116 29L158 0h-32l25-140c3-38-53-32-70-12C52-117 51-52 38 0H6l36-190h30" id="ax"/><g id="a"><use transform="matrix(0.04938271604938272,0,0,0.04938271604938272,0,0)" xlink:href="#at"/><use transform="matrix(0.04938271604938272,0,0,0.04938271604938272,9.876543209876544,0)" xlink:href="#au"/><use transform="matrix(0.04938271604938272,0,0,0.04938271604938272,19.75308641975309,0)" xlink:href="#av"/><use transform="matrix(0.04938271604938272,0,0,0.04938271604938272,29.629629629629633,0)" xlink:href="#aw"/><use transform="matrix(0.04938271604938272,0,0,0.04938271604938272,33.53086419753087,0)" xlink:href="#ax"/><path fill="#333" d="M-.9 1.23h45.2v1.3H-.9z"/></g><path fill="#333" d="M14 0l48-248h34L48 0H14" id="ay"/><path fill="#333" d="M44-68c0 29 11 47 38 47 30 0 42-19 51-41l28 9C148-21 126 4 82 4 31 4 10-29 12-85c3-77 74-140 146-93 12 8 15 23 18 40l-31 5c-1-22-13-36-36-36-52 0-65 49-65 101" id="az"/><path fill="#333" d="M248-111c6-24 9-61-24-58-72 9-57 108-77 169h-31l26-142c3-37-50-30-64-10C52-115 50-51 37 0H6l36-190h30c-1 10-6 24-4 32 13-43 101-52 105 5 13-22 29-41 61-41 90 0 28 129 23 194h-31" id="aA"/><path fill="#333" d="M111-194c62-3 86 47 72 106H45c-7 38 6 69 45 68 27-1 43-14 53-32l24 11C152-15 129 4 87 4 38 3 12-23 12-71c0-70 32-119 99-123zm44 81c14-66-71-72-95-28-4 8-8 17-11 28h106" id="aB"/><path fill="#333" d="M-20 4l123-265h28L8 4h-28" id="aC"/><path fill="#333" d="M11 0l48-248h184l-5 28H87l-15 79h140l-5 27H67L50-27h158l-5 27H11" id="aD"/><path fill="#333" d="M124 0L87-78 21 0h-35l86-98-46-92h33l34 74 61-74h37l-83 92 50 98h-34" id="aE"/><path fill="#333" d="M67-162c32-53 139-36 121 50C175-51 163 2 97 4 68 4 52-11 42-31 38 6 28 39 22 75H-9l50-265h29c-1 10 0 20-3 28zm89 36c0-26-10-43-35-43-54 0-67 50-69 103-1 29 14 45 42 46 53 0 62-58 62-106" id="aF"/><path fill="#333" d="M55-144c13 50 104 24 104 88C159 21 15 23 1-39l26-10c6 40 102 42 102-4-13-50-104-23-104-87 0-71 143-71 148-8l-29 4c-5-35-85-37-89 0" id="aG"/><g id="b"><use transform="matrix(0.04938271604938272,0,0,0.04938271604938272,0,0)" xlink:href="#ay"/><use transform="matrix(0.04938271604938272,0,0,0.04938271604938272,4.938271604938272,0)" xlink:href="#ax"/><use transform="matrix(0.04938271604938272,0,0,0.04938271604938272,14.814814814814817,0)" xlink:href="#az"/><use transform="matrix(0.04938271604938272,0,0,0.04938271604938272,23.703703703703706,0)" xlink:href="#au"/><use transform="matrix(0.04938271604938272,0,0,0.04938271604938272,33.580246913580254,0)" xlink:href="#aA"/><use transform="matrix(0.04938271604938272,0,0,0.04938271604938272,48.345679012345684,0)" xlink:href="#aB"/><use transform="matrix(0.04938271604938272,0,0,0.04938271604938272,58.22222222222223,0)" xlink:href="#aC"/><use transform="matrix(0.04938271604938272,0,0,0.04938271604938272,63.1604938271605,0)" xlink:href="#aD"/><use transform="matrix(0.04938271604938272,0,0,0.04938271604938272,75.01234567901236,0)" xlink:href="#aE"/><use transform="matrix(0.04938271604938272,0,0,0.04938271604938272,83.90123456790124,0)" xlink:href="#aF"/><use transform="matrix(0.04938271604938272,0,0,0.04938271604938272,93.77777777777779,0)" xlink:href="#aB"/><use transform="matrix(0.04938271604938272,0,0,0.04938271604938272,103.65432098765433,0)" xlink:href="#ax"/><use transform="matrix(0.04938271604938272,0,0,0.04938271604938272,113.53086419753087,0)" xlink:href="#aG"/><use transform="matrix(0.04938271604938272,0,0,0.04938271604938272,122.41975308641976,0)" xlink:href="#aB"/><path fill="#333" d="M-.9 1.23H133.2v1.3H-.9z"/></g><path fill="#333" d="M219-77C219 17 104-2 11 0l48-248c73 2 169-15 169 57 0 38-24 54-60 60 29 5 51 21 51 54zm-26-111c0-44-62-31-105-33l-16 79c55 0 121 9 121-46zm-7 110c-1-49-69-36-119-38L50-27c61-1 137 12 136-51" id="aH"/><path fill="#333" d="M165-48c-4 18 1 34 23 27l-3 20c-29 8-62 0-52-35h-2C116-14 99 4 63 4 30 4 8-16 8-49c0-68 71-67 138-67 10-26 0-56-31-54-26 1-42 9-47 31l-32-5c8-67 160-71 144 15-5 28-9 54-15 81zM42-50c3 52 80 24 89-6 7-12 7-24 11-38-47 1-103-4-100 44" id="aI"/><path fill="#333" d="M6 0l50-261h32L37 0H6" id="aJ"/><g id="c"><use transform="matrix(0.04938271604938272,0,0,0.04938271604938272,0,0)" xlink:href="#aH"/><use transform="matrix(0.04938271604938272,0,0,0.04938271604938272,11.851851851851853,0)" xlink:href="#aI"/><use transform="matrix(0.04938271604938272,0,0,0.04938271604938272,21.7283950617284,0)" xlink:href="#aJ"/><use transform="matrix(0.04938271604938272,0,0,0.04938271604938272,25.629629629629633,0)" xlink:href="#aI"/><use transform="matrix(0.04938271604938272,0,0,0.04938271604938272,35.50617283950618,0)" xlink:href="#ax"/><use transform="matrix(0.04938271604938272,0,0,0.04938271604938272,45.38271604938272,0)" xlink:href="#az"/><use transform="matrix(0.04938271604938272,0,0,0.04938271604938272,54.27160493827161,0)" xlink:href="#aB"/><path fill="#333" d="M-.9 1.23h65.94v1.3H-.9z"/></g><path fill="#333" d="M187 0l-14-72H61L19 0h-37l149-248h38L221 0h-34zm-19-99l-22-123L76-99h92" id="aK"/><path fill="#333" d="M51-54c-9 22 5 41 31 30L79-1C43 14 10-4 19-52l22-115H19l5-23h22l19-43h21l-9 43h35l-4 23H73" id="aL"/><path fill="#333" d="M66-151c12-25 30-51 66-40l-6 26C45-176 58-65 38 0H6l36-190h30" id="aM"/><g id="d"><use transform="matrix(0.04938271604938272,0,0,0.04938271604938272,0,0)" xlink:href="#aK"/><use transform="matrix(0.04938271604938272,0,0,0.04938271604938272,11.851851851851853,0)" xlink:href="#az"/><use transform="matrix(0.04938271604938272,0,0,0.04938271604938272,20.74074074074074,0)" xlink:href="#aL"/><use transform="matrix(0.04938271604938272,0,0,0.04938271604938272,25.679012345679016,0)" xlink:href="#au"/><use transform="matrix(0.04938271604938272,0,0,0.04938271604938272,35.55555555555556,0)" xlink:href="#aM"/></g><g id="e"><use transform="matrix(0.04938271604938272,0,0,0.04938271604938272,0,0)" xlink:href="#aD"/><use transform="matrix(0.04938271604938272,0,0,0.04938271604938272,11.851851851851853,0)" xlink:href="#ax"/><use transform="matrix(0.04938271604938272,0,0,0.04938271604938272,21.7283950617284,0)" xlink:href="#aL"/><use transform="matrix(0.04938271604938272,0,0,0.04938271604938272,26.666666666666668,0)" xlink:href="#aB"/><use transform="matrix(0.04938271604938272,0,0,0.04938271604938272,36.543209876543216,0)" xlink:href="#aM"/></g><g id="f"><use transform="matrix(0.04938271604938272,0,0,0.04938271604938272,0,0)" xlink:href="#aJ"/><use transform="matrix(0.04938271604938272,0,0,0.04938271604938272,3.901234567901235,0)" xlink:href="#au"/><use transform="matrix(0.04938271604938272,0,0,0.04938271604938272,13.777777777777779,0)" xlink:href="#av"/><use transform="matrix(0.04938271604938272,0,0,0.04938271604938272,23.654320987654323,0)" xlink:href="#aw"/><use transform="matrix(0.04938271604938272,0,0,0.04938271604938272,27.555555555555557,0)" xlink:href="#ax"/></g><path fill="#333" d="M133-28C103 26-5 8 13-77c13-62 24-115 90-117 29-1 46 15 56 35l19-102h32L160 0h-30zM45-64c-2 27 10 43 35 43 54-1 69-50 69-103 0-29-15-46-42-46-53-1-58 58-62 106" id="aN"/><g id="g"><use transform="matrix(0.04938271604938272,0,0,0.04938271604938272,0,0)" xlink:href="#az"/><use transform="matrix(0.04938271604938272,0,0,0.04938271604938272,8.88888888888889,0)" xlink:href="#aM"/><use transform="matrix(0.04938271604938272,0,0,0.04938271604938272,14.765432098765434,0)" xlink:href="#aB"/><use transform="matrix(0.04938271604938272,0,0,0.04938271604938272,24.641975308641978,0)" xlink:href="#aN"/><use transform="matrix(0.04938271604938272,0,0,0.04938271604938272,34.51851851851852,0)" xlink:href="#aB"/><use transform="matrix(0.04938271604938272,0,0,0.04938271604938272,44.39506172839506,0)" xlink:href="#ax"/><use transform="matrix(0.04938271604938272,0,0,0.04938271604938272,54.27160493827161,0)" xlink:href="#aL"/><use transform="matrix(0.04938271604938272,0,0,0.04938271604938272,59.20987654320988,0)" xlink:href="#aw"/><use transform="matrix(0.04938271604938272,0,0,0.04938271604938272,63.111111111111114,0)" xlink:href="#aI"/><use transform="matrix(0.04938271604938272,0,0,0.04938271604938272,72.98765432098766,0)" xlink:href="#aJ"/><use transform="matrix(0.04938271604938272,0,0,0.04938271604938272,76.8888888888889,0)" xlink:href="#aG"/></g><path fill="#333" d="M52-101C46-14 166-7 216-51l9-45h-74l6-28h105l-18 87C217-12 181 4 130 4 60 4 18-31 18-101c0-106 78-167 188-146 30 6 48 27 59 54l-34 9c-10-26-31-41-67-40-75 1-107 50-112 123" id="aO"/><g id="h"><use transform="matrix(0.04938271604938272,0,0,0.04938271604938272,0,0)" xlink:href="#aO"/><use transform="matrix(0.04938271604938272,0,0,0.04938271604938272,13.827160493827162,0)" xlink:href="#au"/><use transform="matrix(0.04938271604938272,0,0,0.04938271604938272,23.703703703703706,0)" xlink:href="#aI"/><use transform="matrix(0.04938271604938272,0,0,0.04938271604938272,33.580246913580254,0)" xlink:href="#aJ"/><path fill="#333" d="M-.9 1.23h39.27v1.3H-.9z"/></g><path fill="#333" d="M30 0v-248h33v221h125V0H30" id="aP"/><path fill="#333" d="M100-194c62-1 85 37 85 99 1 63-27 99-86 99S16-35 15-95c0-66 28-99 85-99zM99-20c44 1 53-31 53-75 0-43-8-75-51-75s-53 32-53 75 10 74 51 75" id="aQ"/><path fill="#333" d="M177-190C167-65 218 103 67 71c-23-6-38-20-44-43l32-5c15 47 100 32 89-28v-30C133-14 115 1 83 1 29 1 15-40 15-95c0-56 16-97 71-98 29-1 48 16 59 35 1-10 0-23 2-32h30zM94-22c36 0 50-32 50-73 0-42-14-75-50-75-39 0-46 34-46 75s6 73 46 73" id="aR"/><path fill="#333" d="M24-231v-30h32v30H24zM24 0v-190h32V0H24" id="aS"/><path fill="#333" d="M117-194c89-4 53 116 60 194h-32v-121c0-31-8-49-39-48C34-167 62-67 57 0H25l-1-190h30c1 10-1 24 2 32 11-22 29-35 61-36" id="aT"/><g id="i"><use transform="matrix(0.05,0,0,0.05,0,0)" xlink:href="#aP"/><use transform="matrix(0.05,0,0,0.05,10,0)" xlink:href="#aQ"/><use transform="matrix(0.05,0,0,0.05,20,0)" xlink:href="#aR"/><use transform="matrix(0.05,0,0,0.05,30,0)" xlink:href="#aS"/><use transform="matrix(0.05,0,0,0.05,33.95,0)" xlink:href="#aT"/></g><path fill="#333" d="M140-251c81 0 123 46 123 126C263-46 219 4 140 4 59 4 17-45 17-125s42-126 123-126zm0 227c63 0 89-41 89-101s-29-99-89-99c-61 0-89 39-89 99S79-25 140-24" id="aU"/><path fill="#333" d="M194 0L95-120 63-95V0H30v-248h33v124l119-124h40L117-140 236 0h-42" id="aV"/><path fill="#333" d="M33 0v-38h34V0H33" id="aW"/><g id="j"><use transform="matrix(0.05,0,0,0.05,0,0)" xlink:href="#aU"/><use transform="matrix(0.05,0,0,0.05,14,0)" xlink:href="#aV"/><use transform="matrix(0.05,0,0,0.05,26,0)" xlink:href="#aW"/></g><path fill="#333" d="M205 0l-28-72H64L36 0H1l101-248h38L239 0h-34zm-38-99l-47-123c-12 45-31 82-46 123h93" id="aX"/><path fill="#333" d="M24 0v-261h32V0H24" id="aY"/><path fill="#333" d="M206 0h-36l-40-164L89 0H53L-1-190h32L70-26l43-164h34l41 164 42-164h31" id="aZ"/><g id="k"><use transform="matrix(0.05,0,0,0.05,0,0)" xlink:href="#aX"/><use transform="matrix(0.05,0,0,0.05,12,0)" xlink:href="#aY"/><use transform="matrix(0.05,0,0,0.05,15.949999999999998,0)" xlink:href="#aY"/><use transform="matrix(0.05,0,0,0.05,19.9,0)" xlink:href="#aQ"/><use transform="matrix(0.05,0,0,0.05,29.899999999999995,0)" xlink:href="#aZ"/></g><path fill="#333" d="M84 4C-5 8 30-112 23-190h32v120c0 31 7 50 39 49 72-2 45-101 50-169h31l1 190h-30c-1-10 1-25-2-33-11 22-28 36-60 37" id="ba"/><path fill="#333" d="M135-143c-3-34-86-38-87 0 15 53 115 12 119 90S17 21 10-45l28-5c4 36 97 45 98 0-10-56-113-15-118-90-4-57 82-63 122-42 12 7 21 19 24 35" id="bb"/><path fill="#333" d="M100-194c63 0 86 42 84 106H49c0 40 14 67 53 68 26 1 43-12 49-29l28 8c-11 28-37 45-77 45C44 4 14-33 15-96c1-61 26-98 85-98zm52 81c6-60-76-77-97-28-3 7-6 17-6 28h103" id="bc"/><path fill="#333" d="M114-163C36-179 61-72 57 0H25l-1-190h30c1 12-1 29 2 39 6-27 23-49 58-41v29" id="bd"/><g id="l"><use transform="matrix(0.05,0,0,0.05,0,0)" xlink:href="#ba"/><use transform="matrix(0.05,0,0,0.05,10,0)" xlink:href="#bb"/><use transform="matrix(0.05,0,0,0.05,19,0)" xlink:href="#bc"/><use transform="matrix(0.05,0,0,0.05,29,0)" xlink:href="#bd"/></g><path fill="#333" d="M59-47c-2 24 18 29 38 22v24C64 9 27 4 27-40v-127H5v-23h24l9-43h21v43h35v23H59v120" id="be"/><g id="m"><use transform="matrix(0.05,0,0,0.05,0,0)" xlink:href="#be"/><use transform="matrix(0.05,0,0,0.05,5,0)" xlink:href="#aQ"/></g><g id="n"><use transform="matrix(0.05,0,0,0.05,0,0)" xlink:href="#ba"/><use transform="matrix(0.05,0,0,0.05,10,0)" xlink:href="#bb"/><use transform="matrix(0.05,0,0,0.05,19,0)" xlink:href="#bc"/></g><path fill="#333" d="M179-190L93 31C79 59 56 82 12 73V49c39 6 53-20 64-50L1-190h34L92-34l54-156h33" id="bf"/><path fill="#333" d="M210-169c-67 3-38 105-44 169h-31v-121c0-29-5-50-35-48C34-165 62-65 56 0H25l-1-190h30c1 10-1 24 2 32 10-44 99-50 107 0 11-21 27-35 58-36 85-2 47 119 55 194h-31v-121c0-29-5-49-35-48" id="bg"/><g id="o"><use transform="matrix(0.05,0,0,0.05,0,0)" xlink:href="#bb"/><use transform="matrix(0.05,0,0,0.05,9,0)" xlink:href="#bf"/><use transform="matrix(0.05,0,0,0.05,18,0)" xlink:href="#bb"/><use transform="matrix(0.05,0,0,0.05,27,0)" xlink:href="#be"/><use transform="matrix(0.05,0,0,0.05,32,0)" xlink:href="#bc"/><use transform="matrix(0.05,0,0,0.05,42,0)" xlink:href="#bg"/><use transform="matrix(0.05,0,0,0.05,56.95,0)" xlink:href="#aW"/></g><path fill="#333" d="M141-36C126-15 110 5 73 4 37 3 15-17 15-53c-1-64 63-63 125-63 3-35-9-54-41-54-24 1-41 7-42 31l-33-3c5-37 33-52 76-52 45 0 72 20 72 64v82c-1 20 7 32 28 27v20c-31 9-61-2-59-35zM48-53c0 20 12 33 32 33 41-3 63-29 60-74-43 2-92-5-92 41" id="bh"/><path fill="#333" d="M108 0H70L1-190h34L89-25l56-165h34" id="bi"/><g id="p"><use transform="matrix(0.05,0,0,0.05,0,0)" xlink:href="#aX"/><use transform="matrix(0.05,0,0,0.05,12,0)" xlink:href="#aY"/><use transform="matrix(0.05,0,0,0.05,15.949999999999998,0)" xlink:href="#be"/><use transform="matrix(0.05,0,0,0.05,20.95,0)" xlink:href="#bc"/><use transform="matrix(0.05,0,0,0.05,30.950000000000003,0)" xlink:href="#bd"/><use transform="matrix(0.05,0,0,0.05,36.9,0)" xlink:href="#aT"/><use transform="matrix(0.05,0,0,0.05,46.9,0)" xlink:href="#bh"/><use transform="matrix(0.05,0,0,0.05,56.900000000000006,0)" xlink:href="#be"/><use transform="matrix(0.05,0,0,0.05,61.900000000000006,0)" xlink:href="#aS"/><use transform="matrix(0.05,0,0,0.05,65.85,0)" xlink:href="#bi"/><use transform="matrix(0.05,0,0,0.05,74.85,0)" xlink:href="#bc"/></g><g id="q"><use transform="matrix(0.05,0,0,0.05,0,0)" xlink:href="#aU"/><use transform="matrix(0.05,0,0,0.05,14,0)" xlink:href="#aV"/></g><path fill="#333" d="M26 75v-336h71v23H56V52h41v23H26" id="bj"/><path fill="#333" d="M30 0v-248h187v28H63v79h144v27H63v87h162V0H30" id="bk"/><path fill="#333" d="M3 75V52h41v-290H3v-23h71V75H3" id="bl"/><g id="r"><use transform="matrix(0.05,0,0,0.05,0,0)" xlink:href="#bj"/><use transform="matrix(0.05,0,0,0.05,5,0)" xlink:href="#bk"/><use transform="matrix(0.05,0,0,0.05,17,0)" xlink:href="#aY"/><use transform="matrix(0.05,0,0,0.05,20.95,0)" xlink:href="#bb"/><use transform="matrix(0.05,0,0,0.05,29.950000000000003,0)" xlink:href="#bc"/><use transform="matrix(0.05,0,0,0.05,39.95,0)" xlink:href="#bl"/></g><path fill="#333" d="M85-194c31 0 48 13 60 33l-1-100h32l1 261h-30c-2-10 0-23-3-31C134-8 116 4 85 4 32 4 16-35 15-94c0-66 23-100 70-100zm9 24c-40 0-46 34-46 75 0 40 6 74 45 74 42 0 51-32 51-76 0-42-9-74-50-73" id="bm"/><g id="s"><use transform="matrix(0.05,0,0,0.05,0,0)" xlink:href="#bm"/><use transform="matrix(0.05,0,0,0.05,10,0)" xlink:href="#bc"/><use transform="matrix(0.05,0,0,0.05,20,0)" xlink:href="#aT"/><use transform="matrix(0.05,0,0,0.05,30,0)" xlink:href="#aS"/><use transform="matrix(0.05,0,0,0.05,33.95,0)" xlink:href="#bc"/><use transform="matrix(0.05,0,0,0.05,43.95,0)" xlink:href="#bm"/><use transform="matrix(0.05,0,0,0.05,53.95,0)" xlink:href="#aW"/></g><path fill="#333" d="M232-93c-1 65-40 97-104 97C67 4 28-28 28-90v-158h33c8 89-33 224 67 224 102 0 64-133 71-224h33v155" id="bn"/><g id="t"><use transform="matrix(0.05,0,0,0.05,0,0)" xlink:href="#bn"/><use transform="matrix(0.05,0,0,0.05,12.950000000000001,0)" xlink:href="#bb"/><use transform="matrix(0.05,0,0,0.05,21.950000000000003,0)" xlink:href="#bc"/><use transform="matrix(0.05,0,0,0.05,31.950000000000003,0)" xlink:href="#bd"/></g><path fill="#333" d="M96-169c-40 0-48 33-48 73s9 75 48 75c24 0 41-14 43-38l32 2c-6 37-31 61-74 61-59 0-76-41-82-99-10-93 101-131 147-64 4 7 5 14 7 22l-32 3c-4-21-16-35-41-35" id="bo"/><g id="u"><use transform="matrix(0.05,0,0,0.05,0,0)" xlink:href="#bh"/><use transform="matrix(0.05,0,0,0.05,10,0)" xlink:href="#bo"/><use transform="matrix(0.05,0,0,0.05,19,0)" xlink:href="#bo"/><use transform="matrix(0.05,0,0,0.05,28,0)" xlink:href="#bc"/><use transform="matrix(0.05,0,0,0.05,38,0)" xlink:href="#bb"/><use transform="matrix(0.05,0,0,0.05,47,0)" xlink:href="#bb"/></g><path fill="#333" d="M115-194c55 1 70 41 70 98S169 2 115 4C84 4 66-9 55-30l1 105H24l-1-265h31l2 30c10-21 28-34 59-34zm-8 174c40 0 45-34 45-75s-6-73-45-74c-42 0-51 32-51 76 0 43 10 73 51 73" id="bp"/><path fill="#333" d="M106-169C34-169 62-67 57 0H25v-261h32l-1 103c12-21 28-36 61-36 89 0 53 116 60 194h-32v-121c2-32-8-49-39-48" id="bq"/><path fill="#333" d="M115-194c53 0 69 39 70 98 0 66-23 100-70 100C84 3 66-7 56-30L54 0H23l1-261h32v101c10-23 28-34 59-34zm-8 174c40 0 45-34 45-75 0-40-5-75-45-74-42 0-51 32-51 76 0 43 10 73 51 73" id="br"/><g id="v"><use transform="matrix(0.05,0,0,0.05,0,0)" xlink:href="#bp"/><use transform="matrix(0.05,0,0,0.05,10,0)" xlink:href="#bd"/><use transform="matrix(0.05,0,0,0.05,15.949999999999998,0)" xlink:href="#aQ"/><use transform="matrix(0.05,0,0,0.05,25.950000000000003,0)" xlink:href="#bq"/><use transform="matrix(0.05,0,0,0.05,35.95,0)" xlink:href="#aS"/><use transform="matrix(0.05,0,0,0.05,39.900000000000006,0)" xlink:href="#br"/><use transform="matrix(0.05,0,0,0.05,49.900000000000006,0)" xlink:href="#aS"/><use transform="matrix(0.05,0,0,0.05,53.85,0)" xlink:href="#be"/><use transform="matrix(0.05,0,0,0.05,58.85,0)" xlink:href="#bc"/><use transform="matrix(0.05,0,0,0.05,68.85000000000001,0)" xlink:href="#bm"/></g><path fill="#333" d="M233-177c-1 41-23 64-60 70L243 0h-38l-65-103H63V0H30v-248c88 3 205-21 203 71zM63-129c60-2 137 13 137-47 0-61-80-42-137-45v92" id="bs"/><path fill="#333" d="M145-31C134-9 116 4 85 4 32 4 16-35 15-94c0-59 17-99 70-100 32-1 48 14 60 33 0-11-1-24 2-32h30l-1 268h-32zM93-21c41 0 51-33 51-76s-8-73-50-73c-40 0-46 35-46 75s5 74 45 74" id="bt"/><g id="w"><use transform="matrix(0.05,0,0,0.05,0,0)" xlink:href="#bs"/><use transform="matrix(0.05,0,0,0.05,12.950000000000001,0)" xlink:href="#bc"/><use transform="matrix(0.05,0,0,0.05,22.950000000000003,0)" xlink:href="#bt"/><use transform="matrix(0.05,0,0,0.05,32.95,0)" xlink:href="#ba"/><use transform="matrix(0.05,0,0,0.05,42.95,0)" xlink:href="#bc"/><use transform="matrix(0.05,0,0,0.05,52.95,0)" xlink:href="#bb"/><use transform="matrix(0.05,0,0,0.05,61.95,0)" xlink:href="#be"/></g><g id="x"><use transform="matrix(0.05,0,0,0.05,0,0)" xlink:href="#bc"/><use transform="matrix(0.05,0,0,0.05,10,0)" xlink:href="#aT"/><use transform="matrix(0.05,0,0,0.05,20,0)" xlink:href="#be"/><use transform="matrix(0.05,0,0,0.05,25,0)" xlink:href="#bc"/><use transform="matrix(0.05,0,0,0.05,35,0)" xlink:href="#bd"/></g><g id="y"><use transform="matrix(0.05,0,0,0.05,0,0)" xlink:href="#aS"/><use transform="matrix(0.05,0,0,0.05,3.95,0)" xlink:href="#aT"/><use transform="matrix(0.05,0,0,0.05,13.949999999999998,0)" xlink:href="#bo"/><use transform="matrix(0.05,0,0,0.05,22.95,0)" xlink:href="#aQ"/><use transform="matrix(0.05,0,0,0.05,32.95,0)" xlink:href="#bg"/><use transform="matrix(0.05,0,0,0.05,47.900000000000006,0)" xlink:href="#bc"/></g><path fill="#333" d="M33 0v-248h34V0H33" id="bu"/><g id="z"><use transform="matrix(0.05,0,0,0.05,0,0)" xlink:href="#bu"/><use transform="matrix(0.05,0,0,0.05,5,0)" xlink:href="#aT"/><use transform="matrix(0.05,0,0,0.05,15,0)" xlink:href="#bo"/><use transform="matrix(0.05,0,0,0.05,24,0)" xlink:href="#bd"/><use transform="matrix(0.05,0,0,0.05,29.950000000000003,0)" xlink:href="#bc"/><use transform="matrix(0.05,0,0,0.05,39.95,0)" xlink:href="#bh"/><use transform="matrix(0.05,0,0,0.05,49.95,0)" xlink:href="#bb"/><use transform="matrix(0.05,0,0,0.05,58.95,0)" xlink:href="#bc"/></g><path fill="#333" d="M160-131c35 5 61 23 61 61C221 17 115-2 30 0v-248c76 3 177-17 177 60 0 33-19 50-47 57zm-97-11c50-1 110 9 110-42 0-47-63-36-110-37v79zm0 115c55-2 124 14 124-45 0-56-70-42-124-44v89" id="bv"/><g id="A"><use transform="matrix(0.05,0,0,0.05,0,0)" xlink:href="#bv"/><use transform="matrix(0.05,0,0,0.05,12,0)" xlink:href="#bh"/><use transform="matrix(0.05,0,0,0.05,22,0)" xlink:href="#aY"/><use transform="matrix(0.05,0,0,0.05,25.950000000000003,0)" xlink:href="#bh"/><use transform="matrix(0.05,0,0,0.05,35.95,0)" xlink:href="#aT"/><use transform="matrix(0.05,0,0,0.05,45.95,0)" xlink:href="#bo"/><use transform="matrix(0.05,0,0,0.05,54.95,0)" xlink:href="#bc"/></g><path fill="#333" d="M125-24c46 0 70-25 89-51l25 16C214-24 183 4 123 4 8 4-5-146 60-208c32-50 158-61 191-5 5 7 9 14 11 22l-32 10c-9-28-33-43-69-43-74 0-108 51-108 125 0 46 24 75 72 75" id="bw"/><g id="B"><use transform="matrix(0.04938271604938272,0,0,0.04938271604938272,0,0)" xlink:href="#bw"/><use transform="matrix(0.04938271604938272,0,0,0.04938271604938272,12.790123456790125,0)" xlink:href="#au"/><use transform="matrix(0.04938271604938272,0,0,0.04938271604938272,22.66666666666667,0)" xlink:href="#ax"/><use transform="matrix(0.04938271604938272,0,0,0.04938271604938272,32.543209876543216,0)" xlink:href="#aL"/><use transform="matrix(0.04938271604938272,0,0,0.04938271604938272,37.48148148148149,0)" xlink:href="#aM"/><use transform="matrix(0.04938271604938272,0,0,0.04938271604938272,43.35802469135803,0)" xlink:href="#au"/><use transform="matrix(0.04938271604938272,0,0,0.04938271604938272,53.23456790123457,0)" xlink:href="#aJ"/><path fill="#333" d="M-.9 1.23h63.86v1.3H-.9z"/></g><path fill="#333" d="M238-179c0 84-86 86-175 82L45 0H11l48-248c82 0 179-12 179 69zm-34 1c0-53-64-42-116-43l-19 98c63 0 135 9 135-55" id="bx"/><g id="C"><use transform="matrix(0.04938271604938272,0,0,0.04938271604938272,0,0)" xlink:href="#bx"/><use transform="matrix(0.04938271604938272,0,0,0.04938271604938272,11.851851851851853,0)" xlink:href="#aI"/><use transform="matrix(0.04938271604938272,0,0,0.04938271604938272,21.7283950617284,0)" xlink:href="#ax"/><use transform="matrix(0.04938271604938272,0,0,0.04938271604938272,31.60493827160494,0)" xlink:href="#aB"/><use transform="matrix(0.04938271604938272,0,0,0.04938271604938272,41.48148148148149,0)" xlink:href="#aJ"/><path fill="#333" d="M-.9 1.23h47.17v1.3H-.9z"/></g><g id="D"><use transform="matrix(0.05,0,0,0.05,0,0)" xlink:href="#aX"/><use transform="matrix(0.05,0,0,0.05,12,0)" xlink:href="#aY"/><use transform="matrix(0.05,0,0,0.05,15.949999999999998,0)" xlink:href="#aY"/><use transform="matrix(0.05,0,0,0.05,19.9,0)" xlink:href="#aQ"/><use transform="matrix(0.05,0,0,0.05,29.899999999999995,0)" xlink:href="#aZ"/></g><g id="E"><use transform="matrix(0.05,0,0,0.05,0,0)" xlink:href="#bh"/><use transform="matrix(0.05,0,0,0.05,10,0)" xlink:href="#bo"/><use transform="matrix(0.05,0,0,0.05,19,0)" xlink:href="#bo"/><use transform="matrix(0.05,0,0,0.05,28,0)" xlink:href="#bc"/><use transform="matrix(0.05,0,0,0.05,38,0)" xlink:href="#bb"/></g><g id="F"><use transform="matrix(0.05,0,0,0.05,0,0)" xlink:href="#bk"/><use transform="matrix(0.05,0,0,0.05,12,0)" xlink:href="#aT"/><use transform="matrix(0.05,0,0,0.05,22,0)" xlink:href="#be"/><use transform="matrix(0.05,0,0,0.05,27,0)" xlink:href="#bc"/><use transform="matrix(0.05,0,0,0.05,37,0)" xlink:href="#bd"/></g><g id="G"><use transform="matrix(0.05,0,0,0.05,0,0)" xlink:href="#bu"/><use transform="matrix(0.05,0,0,0.05,5,0)" xlink:href="#aT"/><use transform="matrix(0.05,0,0,0.05,15,0)" xlink:href="#bo"/><use transform="matrix(0.05,0,0,0.05,24,0)" xlink:href="#aQ"/><use transform="matrix(0.05,0,0,0.05,34,0)" xlink:href="#bg"/><use transform="matrix(0.05,0,0,0.05,48.95,0)" xlink:href="#bc"/></g><path fill="#333" d="M30-248c118-7 216 8 213 122C240-48 200 0 122 0H30v-248zM63-27c89 8 146-16 146-99s-60-101-146-95v194" id="by"/><g id="H"><use transform="matrix(0.05,0,0,0.05,0,0)" xlink:href="#by"/><use transform="matrix(0.05,0,0,0.05,12.950000000000001,0)" xlink:href="#aS"/><use transform="matrix(0.05,0,0,0.05,16.900000000000002,0)" xlink:href="#bb"/><use transform="matrix(0.05,0,0,0.05,25.900000000000002,0)" xlink:href="#bp"/><use transform="matrix(0.05,0,0,0.05,35.900000000000006,0)" xlink:href="#aY"/><use transform="matrix(0.05,0,0,0.05,39.85000000000001,0)" xlink:href="#bh"/><use transform="matrix(0.05,0,0,0.05,49.85000000000001,0)" xlink:href="#bf"/></g><g id="I"><use transform="matrix(0.05,0,0,0.05,0,0)" xlink:href="#aT"/><use transform="matrix(0.05,0,0,0.05,10,0)" xlink:href="#bc"/><use transform="matrix(0.05,0,0,0.05,20,0)" xlink:href="#aZ"/></g><g id="J"><use transform="matrix(0.05,0,0,0.05,0,0)" xlink:href="#bi"/><use transform="matrix(0.05,0,0,0.05,9,0)" xlink:href="#bh"/><use transform="matrix(0.05,0,0,0.05,19,0)" xlink:href="#aY"/><use transform="matrix(0.05,0,0,0.05,22.95,0)" xlink:href="#ba"/><use transform="matrix(0.05,0,0,0.05,32.95,0)" xlink:href="#bc"/></g><path fill="#333" d="M141 0L90-78 38 0H4l68-98-65-92h35l48 74 47-74h35l-64 92 68 98h-35" id="bz"/><g id="K"><use transform="matrix(0.05,0,0,0.05,0,0)" xlink:href="#bc"/><use transform="matrix(0.05,0,0,0.05,10,0)" xlink:href="#bz"/><use transform="matrix(0.05,0,0,0.05,19,0)" xlink:href="#bp"/><use transform="matrix(0.05,0,0,0.05,29,0)" xlink:href="#bc"/><use transform="matrix(0.05,0,0,0.05,39,0)" xlink:href="#aT"/><use transform="matrix(0.05,0,0,0.05,49,0)" xlink:href="#bb"/><use transform="matrix(0.05,0,0,0.05,58,0)" xlink:href="#bc"/></g><g id="L"><use transform="matrix(0.05,0,0,0.05,0,0)" xlink:href="#by"/><use transform="matrix(0.05,0,0,0.05,12.950000000000001,0)" xlink:href="#bc"/><use transform="matrix(0.05,0,0,0.05,22.950000000000003,0)" xlink:href="#bo"/><use transform="matrix(0.05,0,0,0.05,31.950000000000003,0)" xlink:href="#bd"/><use transform="matrix(0.05,0,0,0.05,37.900000000000006,0)" xlink:href="#bc"/><use transform="matrix(0.05,0,0,0.05,47.900000000000006,0)" xlink:href="#bh"/><use transform="matrix(0.05,0,0,0.05,57.900000000000006,0)" xlink:href="#bb"/><use transform="matrix(0.05,0,0,0.05,66.9,0)" xlink:href="#bc"/></g><g id="M"><use transform="matrix(0.05,0,0,0.05,0,0)" xlink:href="#bk"/><use transform="matrix(0.05,0,0,0.05,12,0)" xlink:href="#bz"/><use transform="matrix(0.05,0,0,0.05,21,0)" xlink:href="#bp"/><use transform="matrix(0.05,0,0,0.05,31,0)" xlink:href="#bc"/><use transform="matrix(0.05,0,0,0.05,41,0)" xlink:href="#aT"/><use transform="matrix(0.05,0,0,0.05,51,0)" xlink:href="#bb"/><use transform="matrix(0.05,0,0,0.05,60,0)" xlink:href="#bc"/></g><g id="N"><use transform="matrix(0.05,0,0,0.05,0,0)" xlink:href="#bb"/><use transform="matrix(0.05,0,0,0.05,9,0)" xlink:href="#bc"/><use transform="matrix(0.05,0,0,0.05,19,0)" xlink:href="#be"/></g><g id="O"><use transform="matrix(0.05,0,0,0.05,0,0)" xlink:href="#aR"/><use transform="matrix(0.05,0,0,0.05,10,0)" xlink:href="#aQ"/><use transform="matrix(0.05,0,0,0.05,20,0)" xlink:href="#bh"/><use transform="matrix(0.05,0,0,0.05,30,0)" xlink:href="#aY"/></g><path fill="#333" d="M185-189c-5-48-123-54-124 2 14 75 158 14 163 119 3 78-121 87-175 55-17-10-28-26-33-46l33-7c5 56 141 63 141-1 0-78-155-14-162-118-5-82 145-84 179-34 5 7 8 16 11 25" id="bA"/><g id="P"><use transform="matrix(0.05,0,0,0.05,0,0)" xlink:href="#bA"/><use transform="matrix(0.05,0,0,0.05,12,0)" xlink:href="#bc"/><use transform="matrix(0.05,0,0,0.05,22,0)" xlink:href="#be"/></g><path fill="#333" d="M101-234c-31-9-42 10-38 44h38v23H63V0H32v-167H5v-23h27c-7-52 17-82 69-68v24" id="bB"/><g id="Q"><use transform="matrix(0.05,0,0,0.05,0,0)" xlink:href="#aS"/><use transform="matrix(0.05,0,0,0.05,3.95,0)" xlink:href="#bB"/></g><g id="R"><use transform="matrix(0.05,0,0,0.05,0,0)" xlink:href="#aR"/><use transform="matrix(0.05,0,0,0.05,10,0)" xlink:href="#aQ"/><use transform="matrix(0.05,0,0,0.05,20,0)" xlink:href="#bh"/><use transform="matrix(0.05,0,0,0.05,30,0)" xlink:href="#aY"/></g><g id="S"><use transform="matrix(0.05,0,0,0.05,0,0)" xlink:href="#bq"/><use transform="matrix(0.05,0,0,0.05,10,0)" xlink:href="#bh"/><use transform="matrix(0.05,0,0,0.05,20,0)" xlink:href="#bb"/></g><g id="T"><use transform="matrix(0.05,0,0,0.05,0,0)" xlink:href="#br"/><use transform="matrix(0.05,0,0,0.05,10,0)" xlink:href="#bc"/><use transform="matrix(0.05,0,0,0.05,20,0)" xlink:href="#bc"/><use transform="matrix(0.05,0,0,0.05,30,0)" xlink:href="#aT"/></g><g id="U"><use transform="matrix(0.05,0,0,0.05,0,0)" xlink:href="#bd"/><use transform="matrix(0.05,0,0,0.05,5.95,0)" xlink:href="#bc"/><use transform="matrix(0.05,0,0,0.05,15.949999999999998,0)" xlink:href="#bh"/><use transform="matrix(0.05,0,0,0.05,25.950000000000003,0)" xlink:href="#bo"/><use transform="matrix(0.05,0,0,0.05,34.95,0)" xlink:href="#bq"/><use transform="matrix(0.05,0,0,0.05,44.95,0)" xlink:href="#bc"/><use transform="matrix(0.05,0,0,0.05,54.95,0)" xlink:href="#bm"/></g><path fill="#333" d="M143 4C61 4 22-44 18-125c-5-107 100-154 193-111 17 8 29 25 37 43l-32 9c-13-25-37-40-76-40-61 0-88 39-88 99 0 61 29 100 91 101 35 0 62-11 79-27v-45h-74v-28h105v86C228-13 192 4 143 4" id="bC"/><g id="V"><use transform="matrix(0.05,0,0,0.05,0,0)" xlink:href="#bC"/><use transform="matrix(0.05,0,0,0.05,14,0)" xlink:href="#aQ"/><use transform="matrix(0.05,0,0,0.05,24,0)" xlink:href="#bh"/><use transform="matrix(0.05,0,0,0.05,34,0)" xlink:href="#aY"/></g><path fill="#333" d="M190 0L58-211 59 0H30v-248h39L202-35l-2-213h31V0h-41" id="bD"/><g id="W"><use transform="matrix(0.05,0,0,0.05,0,0)" xlink:href="#bD"/><use transform="matrix(0.05,0,0,0.05,12.950000000000001,0)" xlink:href="#aQ"/><use transform="matrix(0.05,0,0,0.05,22.950000000000003,0)" xlink:href="#be"/><use transform="matrix(0.05,0,0,0.05,27.950000000000003,0)" xlink:href="#aS"/><use transform="matrix(0.05,0,0,0.05,31.900000000000002,0)" xlink:href="#bB"/><use transform="matrix(0.05,0,0,0.05,36.900000000000006,0)" xlink:href="#bf"/></g><g id="X"><use transform="matrix(0.05,0,0,0.05,0,0)" xlink:href="#bh"/><use transform="matrix(0.05,0,0,0.05,10,0)" xlink:href="#br"/><use transform="matrix(0.05,0,0,0.05,20,0)" xlink:href="#aQ"/><use transform="matrix(0.05,0,0,0.05,30,0)" xlink:href="#ba"/><use transform="matrix(0.05,0,0,0.05,40,0)" xlink:href="#be"/></g><g id="Y"><use transform="matrix(0.05,0,0,0.05,0,0)" xlink:href="#br"/><use transform="matrix(0.05,0,0,0.05,10,0)" xlink:href="#bc"/><use transform="matrix(0.05,0,0,0.05,20,0)" xlink:href="#aS"/><use transform="matrix(0.05,0,0,0.05,23.95,0)" xlink:href="#aT"/><use transform="matrix(0.05,0,0,0.05,33.95,0)" xlink:href="#aR"/></g><g id="Z"><use transform="matrix(0.05,0,0,0.05,0,0)" xlink:href="#aT"/><use transform="matrix(0.05,0,0,0.05,10,0)" xlink:href="#aQ"/><use transform="matrix(0.05,0,0,0.05,20,0)" xlink:href="#be"/></g><g id="aa"><use transform="matrix(0.05,0,0,0.05,0,0)" xlink:href="#aP"/><use transform="matrix(0.05,0,0,0.05,10,0)" xlink:href="#aQ"/><use transform="matrix(0.05,0,0,0.05,20,0)" xlink:href="#aQ"/><use transform="matrix(0.05,0,0,0.05,30,0)" xlink:href="#bp"/></g><g id="ab"><use transform="matrix(0.05,0,0,0.05,0,0)" xlink:href="#bn"/><use transform="matrix(0.05,0,0,0.05,12.950000000000001,0)" xlink:href="#aT"/><use transform="matrix(0.05,0,0,0.05,22.950000000000003,0)" xlink:href="#be"/><use transform="matrix(0.05,0,0,0.05,27.950000000000003,0)" xlink:href="#aS"/><use transform="matrix(0.05,0,0,0.05,31.900000000000002,0)" xlink:href="#aY"/></g><g id="ac"><use transform="matrix(0.05,0,0,0.05,0,0)" xlink:href="#bb"/><use transform="matrix(0.05,0,0,0.05,9,0)" xlink:href="#be"/><use transform="matrix(0.05,0,0,0.05,14,0)" xlink:href="#aQ"/><use transform="matrix(0.05,0,0,0.05,24,0)" xlink:href="#bp"/><use transform="matrix(0.05,0,0,0.05,34,0)" xlink:href="#bb"/></g><g id="ad"><use transform="matrix(0.05,0,0,0.05,0,0)" xlink:href="#br"/><use transform="matrix(0.05,0,0,0.05,10,0)" xlink:href="#bd"/><use transform="matrix(0.05,0,0,0.05,15.949999999999998,0)" xlink:href="#aS"/><use transform="matrix(0.05,0,0,0.05,19.9,0)" xlink:href="#aT"/><use transform="matrix(0.05,0,0,0.05,29.899999999999995,0)" xlink:href="#aR"/><use transform="matrix(0.05,0,0,0.05,39.9,0)" xlink:href="#aS"/><use transform="matrix(0.05,0,0,0.05,43.85,0)" xlink:href="#aT"/><use transform="matrix(0.05,0,0,0.05,53.85,0)" xlink:href="#aR"/></g><g id="ae"><use transform="matrix(0.05,0,0,0.05,0,0)" xlink:href="#ba"/><use transform="matrix(0.05,0,0,0.05,10,0)" xlink:href="#bp"/></g><g id="af"><use transform="matrix(0.05,0,0,0.05,0,0)" xlink:href="#aR"/><use transform="matrix(0.05,0,0,0.05,10,0)" xlink:href="#aQ"/><use transform="matrix(0.05,0,0,0.05,20,0)" xlink:href="#bh"/><use transform="matrix(0.05,0,0,0.05,30,0)" xlink:href="#aY"/><use transform="matrix(0.05,0,0,0.05,33.95,0)" xlink:href="#bb"/></g><g id="ag"><use transform="matrix(0.05,0,0,0.05,0,0)" xlink:href="#bd"/><use transform="matrix(0.05,0,0,0.05,5.95,0)" xlink:href="#bc"/><use transform="matrix(0.05,0,0,0.05,15.949999999999998,0)" xlink:href="#aQ"/><use transform="matrix(0.05,0,0,0.05,25.950000000000003,0)" xlink:href="#bo"/><use transform="matrix(0.05,0,0,0.05,34.95,0)" xlink:href="#bo"/><use transform="matrix(0.05,0,0,0.05,43.95,0)" xlink:href="#ba"/><use transform="matrix(0.05,0,0,0.05,53.95,0)" xlink:href="#bd"/><use transform="matrix(0.05,0,0,0.05,59.900000000000006,0)" xlink:href="#aS"/><use transform="matrix(0.05,0,0,0.05,63.85,0)" xlink:href="#aT"/><use transform="matrix(0.05,0,0,0.05,73.85000000000001,0)" xlink:href="#aR"/></g><g id="ah"><use transform="matrix(0.05,0,0,0.05,0,0)" xlink:href="#br"/><use transform="matrix(0.05,0,0,0.05,10,0)" xlink:href="#bh"/><use transform="matrix(0.05,0,0,0.05,20,0)" xlink:href="#aY"/><use transform="matrix(0.05,0,0,0.05,23.95,0)" xlink:href="#bh"/><use transform="matrix(0.05,0,0,0.05,33.95,0)" xlink:href="#aT"/><use transform="matrix(0.05,0,0,0.05,43.95,0)" xlink:href="#bo"/><use transform="matrix(0.05,0,0,0.05,52.95,0)" xlink:href="#bc"/></g><g id="ai"><use transform="matrix(0.05,0,0,0.05,0,0)" xlink:href="#aP"/><use transform="matrix(0.05,0,0,0.05,10,0)" xlink:href="#aQ"/><use transform="matrix(0.05,0,0,0.05,20,0)" xlink:href="#aQ"/><use transform="matrix(0.05,0,0,0.05,30,0)" xlink:href="#bp"/></g><g id="aj"><use transform="matrix(0.05,0,0,0.05,0,0)" xlink:href="#bn"/><use transform="matrix(0.05,0,0,0.05,12.950000000000001,0)" xlink:href="#aT"/><use transform="matrix(0.05,0,0,0.05,22.950000000000003,0)" xlink:href="#be"/><use transform="matrix(0.05,0,0,0.05,27.950000000000003,0)" xlink:href="#aS"/><use transform="matrix(0.05,0,0,0.05,31.900000000000002,0)" xlink:href="#aY"/></g><g id="ak"><use transform="matrix(0.05,0,0,0.05,0,0)" xlink:href="#ba"/><use transform="matrix(0.05,0,0,0.05,10,0)" xlink:href="#bb"/><use transform="matrix(0.05,0,0,0.05,19,0)" xlink:href="#bc"/><use transform="matrix(0.05,0,0,0.05,29,0)" xlink:href="#bd"/></g><g id="al"><use transform="matrix(0.05,0,0,0.05,0,0)" xlink:href="#bb"/><use transform="matrix(0.05,0,0,0.05,9,0)" xlink:href="#be"/><use transform="matrix(0.05,0,0,0.05,14,0)" xlink:href="#aQ"/><use transform="matrix(0.05,0,0,0.05,24,0)" xlink:href="#bp"/><use transform="matrix(0.05,0,0,0.05,34,0)" xlink:href="#bb"/></g><g id="am"><use transform="matrix(0.05,0,0,0.05,0,0)" xlink:href="#be"/><use transform="matrix(0.05,0,0,0.05,5,0)" xlink:href="#bq"/><use transform="matrix(0.05,0,0,0.05,15,0)" xlink:href="#aS"/><use transform="matrix(0.05,0,0,0.05,18.95,0)" xlink:href="#bb"/></g><g id="an"><use transform="matrix(0.05,0,0,0.05,0,0)" xlink:href="#bB"/><use transform="matrix(0.05,0,0,0.05,5,0)" xlink:href="#bc"/><use transform="matrix(0.05,0,0,0.05,15,0)" xlink:href="#bh"/><use transform="matrix(0.05,0,0,0.05,25,0)" xlink:href="#be"/><use transform="matrix(0.05,0,0,0.05,30,0)" xlink:href="#ba"/><use transform="matrix(0.05,0,0,0.05,40,0)" xlink:href="#bd"/><use transform="matrix(0.05,0,0,0.05,45.95,0)" xlink:href="#bc"/></g><g id="ao"><use transform="matrix(0.05,0,0,0.05,0,0)" xlink:href="#aX"/><use transform="matrix(0.05,0,0,0.05,12,0)" xlink:href="#bm"/><use transform="matrix(0.05,0,0,0.05,22,0)" xlink:href="#bm"/></g><g id="ap"><use transform="matrix(0.05,0,0,0.05,0,0)" xlink:href="#bc"/><use transform="matrix(0.05,0,0,0.05,10,0)" xlink:href="#bz"/><use transform="matrix(0.05,0,0,0.05,19,0)" xlink:href="#bp"/><use transform="matrix(0.05,0,0,0.05,29,0)" xlink:href="#bc"/><use transform="matrix(0.05,0,0,0.05,39,0)" xlink:href="#aT"/><use transform="matrix(0.05,0,0,0.05,49,0)" xlink:href="#bb"/><use transform="matrix(0.05,0,0,0.05,58,0)" xlink:href="#bc"/></g><g id="aq"><use transform="matrix(0.05,0,0,0.05,0,0)" xlink:href="#bo"/><use transform="matrix(0.05,0,0,0.05,9,0)" xlink:href="#bh"/><use transform="matrix(0.05,0,0,0.05,19,0)" xlink:href="#be"/><use transform="matrix(0.05,0,0,0.05,24,0)" xlink:href="#bc"/><use transform="matrix(0.05,0,0,0.05,34,0)" xlink:href="#aR"/><use transform="matrix(0.05,0,0,0.05,44,0)" xlink:href="#aQ"/><use transform="matrix(0.05,0,0,0.05,54,0)" xlink:href="#bd"/><use transform="matrix(0.05,0,0,0.05,59.95,0)" xlink:href="#bf"/></g><path fill="#333" d="M212-179c-10-28-35-45-73-45-59 0-87 40-87 99 0 60 29 101 89 101 43 0 62-24 78-52l27 14C228-24 195 4 139 4 59 4 22-46 18-125c-6-104 99-153 187-111 19 9 31 26 39 46" id="bE"/><g id="ar"><use transform="matrix(0.05,0,0,0.05,0,0)" xlink:href="#bE"/><use transform="matrix(0.05,0,0,0.05,12.950000000000001,0)" xlink:href="#bd"/><use transform="matrix(0.05,0,0,0.05,18.900000000000002,0)" xlink:href="#bc"/><use transform="matrix(0.05,0,0,0.05,28.900000000000002,0)" xlink:href="#bh"/><use transform="matrix(0.05,0,0,0.05,38.900000000000006,0)" xlink:href="#be"/><use transform="matrix(0.05,0,0,0.05,43.900000000000006,0)" xlink:href="#bc"/></g><g id="as"><use transform="matrix(0.05,0,0,0.05,0,0)" xlink:href="#bo"/><use transform="matrix(0.05,0,0,0.05,9,0)" xlink:href="#bh"/><use transform="matrix(0.05,0,0,0.05,19,0)" xlink:href="#be"/><use transform="matrix(0.05,0,0,0.05,24,0)" xlink:href="#bc"/><use transform="matrix(0.05,0,0,0.05,34,0)" xlink:href="#aR"/><use transform="matrix(0.05,0,0,0.05,44,0)" xlink:href="#aQ"/><use transform="matrix(0.05,0,0,0.05,54,0)" xlink:href="#bd"/><use transform="matrix(0.05,0,0,0.05,59.95,0)" xlink:href="#bf"/></g></defs></g></svg>